<svg width="16" height="16" viewBox="0 0 16 16" fill="none" xmlns="http://www.w3.org/2000/svg">
<path d="M14.8555 6.2415C14.568 6.02841 14.3229 5.76334 14.133 5.46C14.0447 5.09474 14.0265 4.71603 14.0795 4.344C14.122 3.647 14.1705 2.857 13.6565 2.344C13.1425 1.831 12.354 1.878 11.6565 1.9215C11.2843 1.97432 10.9054 1.95599 10.54 1.8675C10.2367 1.67759 9.97159 1.43253 9.7585 1.145C9.289 0.6085 8.757 0 8 0C7.243 0 6.711 0.6085 6.2415 1.1445C6.02841 1.43203 5.76334 1.67709 5.46 1.867C5.0946 1.95552 4.71569 1.97368 4.3435 1.9205C3.648 1.8775 2.8575 1.8295 2.3435 2.3435C1.8295 2.8575 1.878 3.6465 1.921 4.3435C1.97407 4.71572 1.95575 5.09464 1.867 5.46C1.67709 5.76334 1.43203 6.02841 1.1445 6.2415C0.6085 6.711 0 7.243 0 8C0 8.757 0.6085 9.289 1.1445 9.7585C1.43203 9.97159 1.67709 10.2367 1.867 10.54C1.95531 10.9054 1.97347 11.2843 1.9205 11.6565C1.878 12.353 1.8295 13.143 2.3435 13.6565C2.8575 14.17 3.6435 14.1225 4.3435 14.079C4.71572 14.0259 5.09464 14.0443 5.46 14.133C5.76334 14.3229 6.02841 14.568 6.2415 14.8555C6.711 15.3915 7.243 16 8 16C8.757 16 9.289 15.3915 9.7585 14.8555C9.97159 14.568 10.2367 14.3229 10.54 14.133C10.9052 14.0444 11.284 14.0263 11.656 14.0795C12.352 14.1225 13.1425 14.171 13.656 13.6565C14.1695 13.142 14.1215 12.3535 14.0785 11.6565C14.0254 11.2843 14.0438 10.9054 14.1325 10.54C14.3224 10.2367 14.5675 9.97159 14.855 9.7585C15.3915 9.289 16 8.757 16 8C16 7.243 15.3915 6.711 14.8555 6.2415ZM14.197 9.006C13.7858 9.31065 13.4482 9.70362 13.209 10.156C13.0511 10.6604 13.0074 11.1936 13.081 11.717C13.111 12.2025 13.145 12.7535 12.9495 12.9485C12.754 13.1435 12.203 13.1095 11.7175 13.0805C11.1943 13.007 10.6613 13.0505 10.157 13.208C9.70462 13.4472 9.31165 13.7848 9.007 14.196C8.66 14.592 8.303 15 8 15C7.697 15 7.34 14.592 6.994 14.197C6.68935 13.7858 6.29638 13.4482 5.844 13.209C5.54244 13.0964 5.22169 13.0443 4.9 13.0555C4.695 13.0555 4.487 13.0685 4.281 13.081C3.794 13.111 3.244 13.145 3.0495 12.9495C2.855 12.754 2.8875 12.2035 2.9175 11.7175C2.99128 11.1943 2.94773 10.6613 2.79 10.157C2.55078 9.70462 2.21317 9.31165 1.802 9.007C1.408 8.66 1 8.303 1 8C1 7.697 1.408 7.34 1.803 6.994C2.21417 6.68935 2.55178 6.29638 2.791 5.844C2.9489 5.3396 2.99263 4.80639 2.919 4.283C2.889 3.7965 2.855 3.2455 3.05 3.05C3.245 2.8545 3.796 2.889 4.282 2.918C4.80516 2.99254 5.33838 2.94897 5.8425 2.7905C6.29488 2.55128 6.68785 2.21367 6.9925 1.8025C7.34 1.408 7.697 1 8 1C8.303 1 8.66 1.408 9.006 1.803C9.31065 2.21417 9.70362 2.55178 10.156 2.791C10.6604 2.94894 11.1936 2.99266 11.717 2.919C12.203 2.8885 12.7535 2.8545 12.9485 3.0505C13.1435 3.2465 13.1105 3.7965 13.0805 4.2825C13.0067 4.80568 13.0503 5.33873 13.208 5.843C13.4472 6.29538 13.7848 6.68835 14.196 6.993C14.592 7.34 15 7.697 15 8C15 8.303 14.592 8.66 14.197 9.006Z" fill="white"/>
<path d="M4.61608 9.02751L4.16308 9.23901L3.94958 8.78551L4.40308 8.57451C4.52329 8.51842 4.61629 8.41687 4.66163 8.29221C4.70696 8.16754 4.70092 8.02997 4.64483 7.90976C4.58873 7.78955 4.48719 7.69655 4.36252 7.65121C4.23786 7.60588 4.10029 7.61192 3.98008 7.66801L3.07358 8.09101C2.95345 8.14712 2.86052 8.24864 2.81523 8.37325C2.76994 8.49787 2.776 8.63537 2.83208 8.75551L3.46658 10.116L4.10008 11.474C4.15304 11.5822 4.24264 11.6681 4.35295 11.7164C4.46327 11.7648 4.58715 11.7724 4.70258 11.738C4.77035 11.7167 4.8328 11.6812 4.88577 11.6339C4.93874 11.5865 4.98101 11.5284 5.00978 11.4635C5.03854 11.3985 5.05313 11.3282 5.05258 11.2572C5.05203 11.1861 5.03635 11.116 5.00658 11.0515L4.58358 10.145L5.03708 9.93351C5.15517 9.87616 5.24596 9.77466 5.28986 9.65093C5.33375 9.52721 5.32722 9.39118 5.27169 9.27223C5.21615 9.15328 5.11605 9.06094 4.99302 9.01515C4.86998 8.96936 4.73387 8.9738 4.61408 9.02751H4.61608Z" fill="white"/>
<path d="M8.44221 9.14375L7.54471 8.60025C7.71289 8.37838 7.80192 8.10658 7.7976 7.82821C7.79327 7.54984 7.69584 7.28093 7.52085 7.0644C7.34586 6.84786 7.10339 6.69617 6.83213 6.63352C6.56086 6.57087 6.27643 6.60088 6.02421 6.71875L5.34371 7.03525C5.28412 7.06298 5.23059 7.10219 5.18616 7.15064C5.14174 7.19908 5.10731 7.25581 5.08483 7.31757C5.06236 7.37934 5.05228 7.44493 5.05517 7.51059C5.05807 7.57625 5.07388 7.6407 5.10171 7.70025L6.36971 10.4187C6.42359 10.529 6.51547 10.6162 6.62846 10.6641C6.74145 10.7121 6.86796 10.7176 6.98471 10.6797C7.05068 10.6565 7.11109 10.6198 7.16211 10.572C7.21313 10.5242 7.25363 10.4663 7.28105 10.4019C7.30847 10.3376 7.3222 10.2683 7.32136 10.1983C7.32053 10.1284 7.30515 10.0594 7.27621 9.99575L7.02321 9.45025L7.92271 10.0002C8.00068 10.048 8.0903 10.0732 8.18171 10.0732C8.28985 10.0709 8.39435 10.0338 8.47981 9.96748C8.56527 9.90118 8.62716 9.80917 8.65635 9.70502C8.68554 9.60087 8.68048 9.49009 8.64193 9.38904C8.60337 9.28798 8.53336 9.20199 8.44221 9.14375ZM6.63721 7.61475C6.6834 7.63178 6.72353 7.66207 6.75257 7.70182C6.78161 7.74157 6.79827 7.78901 6.80046 7.83819C6.80265 7.88737 6.79027 7.9361 6.76488 7.97827C6.73948 8.02044 6.7022 8.05418 6.65771 8.07525L6.43071 8.18125L6.21971 7.72825L6.44721 7.62225C6.4768 7.60845 6.50884 7.60069 6.54146 7.5994C6.57408 7.59811 6.60663 7.60333 6.63721 7.61475Z" fill="white"/>
<path d="M10.2374 8.06236L9.78386 8.27386L9.57236 7.82036L10.0259 7.60936C10.1463 7.55314 10.2394 7.45138 10.2848 7.32648C10.3302 7.20158 10.3241 7.06377 10.2679 6.94336C10.2116 6.82295 10.1099 6.72981 9.98498 6.68443C9.86008 6.63904 9.72227 6.64514 9.60186 6.70136L9.14886 6.91286L8.93786 6.45936L9.39086 6.24836C9.50758 6.19024 9.59698 6.08883 9.63999 5.96574C9.68301 5.84265 9.67624 5.70763 9.62114 5.58946C9.56603 5.47129 9.46694 5.37932 9.345 5.33316C9.22305 5.287 9.0879 5.2903 8.96836 5.34236L8.06186 5.76436C7.94173 5.82047 7.8488 5.92199 7.80351 6.0466C7.75822 6.17122 7.76428 6.30872 7.82036 6.42886L9.08886 9.15136C9.14496 9.27149 9.24649 9.36442 9.3711 9.40971C9.49571 9.455 9.63321 9.44894 9.75336 9.39286L10.6599 8.97036C10.7803 8.91433 10.8735 8.81277 10.919 8.68801C10.9645 8.56325 10.9586 8.42552 10.9026 8.30511C10.8466 8.1847 10.745 8.09148 10.6203 8.04596C10.4955 8.00043 10.3578 8.00633 10.2374 8.06236Z" fill="white"/>
<path d="M12.4981 7.0042L12.0451 7.2157L11.8336 6.7622L12.2871 6.5512C12.3466 6.52342 12.4001 6.4842 12.4444 6.43576C12.4888 6.38732 12.5232 6.33062 12.5456 6.26889C12.5681 6.20716 12.5781 6.14162 12.5753 6.076C12.5724 6.01038 12.5566 5.94597 12.5288 5.88645C12.5011 5.82693 12.4618 5.77346 12.4134 5.7291C12.365 5.68474 12.3082 5.65035 12.2465 5.6279C12.1848 5.60545 12.1192 5.59538 12.0536 5.59826C11.988 5.60115 11.9236 5.61692 11.8641 5.6447L11.4111 5.8562L11.1996 5.4027L11.6531 5.1917C11.7733 5.13561 11.8663 5.03406 11.9116 4.90939C11.957 4.78473 11.9509 4.64716 11.8948 4.52695C11.8387 4.40674 11.7372 4.31374 11.6125 4.2684C11.4879 4.22306 11.3503 4.22911 11.2301 4.2852L10.3236 4.7077C10.2034 4.7638 10.1105 4.86533 10.0652 4.98994C10.0199 5.11455 10.026 5.25205 10.0821 5.3722L10.7171 6.7342L11.3501 8.0917C11.4062 8.21183 11.5077 8.30476 11.6323 8.35005C11.7569 8.39534 11.8944 8.38928 12.0146 8.3332L12.9211 7.9102C13.0392 7.85284 13.13 7.75135 13.1739 7.62762C13.2178 7.5039 13.2112 7.36787 13.1557 7.24892C13.1001 7.12996 13.0001 7.03762 12.877 6.99184C12.754 6.94605 12.6179 6.95049 12.4981 7.0042Z" fill="white"/>
</svg>
