<svg width="110" height="110" viewBox="0 0 110 110" fill="none" xmlns="http://www.w3.org/2000/svg">
<g filter="url(#filter0_d_561_1059)">
<rect x="20" y="10" width="70" height="70" rx="20" fill="url(#paint0_linear_561_1059)"/>
</g>
<path d="M42.3688 47.4203C43.9609 47.4203 45.4023 46.7734 46.4461 45.7305C47.4914 44.6875 48.1359 43.2461 48.1359 41.6531C48.1359 40.0602 47.4914 38.6195 46.4461 37.5742C45.4031 36.5312 43.9617 35.8867 42.3688 35.8867C40.7758 35.8867 39.3352 36.5312 38.2914 37.5742C37.2461 38.6195 36.6016 40.0609 36.6016 41.6531C36.6016 43.2453 37.2461 44.6867 38.2914 45.7305C39.3344 46.7742 40.7766 47.4203 42.3688 47.4203ZM40.4086 42.3672C40.7477 42.2273 41.1375 42.3867 41.2789 42.7258C41.3234 42.8344 41.3742 42.932 41.4336 43.0203C41.6352 43.3281 41.9055 43.5055 42.182 43.5805C42.4656 43.6578 42.7531 43.6336 42.9883 43.5359C43.0414 43.5141 43.0922 43.4875 43.1414 43.4539C43.1836 43.4273 43.2188 43.3984 43.2477 43.3695C43.3344 43.2812 43.3891 43.1703 43.4047 43.0594C43.418 42.9594 43.3961 42.8555 43.3336 42.7586C43.3094 42.7234 43.2828 42.6875 43.2516 42.6586C43.1297 42.5391 42.8039 42.4641 42.4609 42.382C41.8648 42.2422 41.2297 42.0922 40.7289 41.5758C40.5406 41.3828 40.4031 41.1531 40.3195 40.907C40.2086 40.5813 40.1891 40.225 40.2641 39.8859C40.3391 39.543 40.5117 39.2102 40.7867 38.9445C40.9836 38.7516 41.232 38.5945 41.5305 38.493C41.5836 38.475 41.6414 38.4578 41.7008 38.4422V37.8711C41.7008 37.5031 42 37.2047 42.3672 37.2047C42.7352 37.2047 43.0336 37.5039 43.0336 37.8711V38.4156C43.1398 38.4398 43.2461 38.4711 43.3461 38.5086C43.9062 38.7148 44.3758 39.118 44.5883 39.7484C44.6062 39.7992 44.6234 39.8547 44.6391 39.9164C44.7258 40.2727 44.5086 40.6336 44.1516 40.7203C43.7953 40.8086 43.4344 40.5898 43.3453 40.2328C43.3406 40.2148 43.3367 40.1953 43.3273 40.1727C43.2586 39.9688 43.0906 39.8313 42.8891 39.7563C42.7406 39.7031 42.5789 39.6766 42.4148 39.6789H42.3531C42.2531 39.6836 42.1562 39.6992 42.0633 39.7211C42.0281 39.7297 41.9922 39.7406 41.9547 39.7523C41.8531 39.7875 41.7711 39.8391 41.7109 39.8961C41.6359 39.9711 41.5867 40.0664 41.5648 40.1664C41.5406 40.2727 41.5469 40.3813 41.5781 40.4789C41.6 40.543 41.6359 40.6031 41.6797 40.6492C41.9078 40.8836 42.3484 40.9883 42.7602 41.0852C43.2891 41.2094 43.7875 41.3266 44.175 41.7055C44.2836 41.8094 44.3719 41.918 44.4453 42.0289C44.693 42.4078 44.775 42.8305 44.7195 43.2359C44.6664 43.6305 44.4828 44.0047 44.1969 44.2945C44.0969 44.3984 43.9867 44.4898 43.8687 44.5672C43.7539 44.6422 43.6297 44.7086 43.4969 44.7641C43.3508 44.8242 43.1937 44.8727 43.032 44.9055V45.4344C43.032 45.8023 42.7328 46.1008 42.3656 46.1008C41.9977 46.1008 41.6992 45.8016 41.6992 45.4344V44.8258C41.1766 44.6531 40.6805 44.3055 40.3148 43.7477C40.2148 43.5945 40.1242 43.4242 40.0469 43.2359C39.9078 42.8984 40.0695 42.5086 40.4086 42.3672ZM36.9477 50.7648C36.7352 50.5523 36.6023 50.2578 36.6023 49.9344C36.6023 49.6086 36.7352 49.3141 36.9477 49.1016C37.1625 48.8867 37.457 48.7539 37.7805 48.7539H46.9578C47.2812 48.7539 47.5758 48.8867 47.7906 49.1016C48.0031 49.3141 48.1359 49.6086 48.1359 49.9344C48.1359 50.2578 48.0031 50.5523 47.7906 50.7648C47.5758 50.9797 47.2812 51.1125 46.9578 51.1125H37.7797C37.457 51.1125 37.1625 50.9797 36.9477 50.7648ZM45.3227 54.1195C45.1609 54.3453 45.0148 54.5734 44.882 54.8039H37.7797C37.4562 54.8039 37.1617 54.6711 36.9469 54.4563C36.7344 54.2438 36.6016 53.9492 36.6016 53.6258C36.6016 53.3 36.7344 53.0055 36.9469 52.793C37.1617 52.5781 37.4562 52.4453 37.7797 52.4453H46.9727C46.6711 52.6687 46.3859 52.9148 46.1219 53.1781C45.832 53.4664 45.5664 53.7828 45.3227 54.1195ZM37.7797 56.1367H44.282C44.1711 56.4648 44.0828 56.7992 44.0187 57.1352C43.9305 57.5844 43.8812 58.0391 43.875 58.4945H37.7797C37.4562 58.4945 37.1617 58.3617 36.9469 58.1469C36.7344 57.9344 36.6016 57.6398 36.6016 57.3164C36.6016 56.9906 36.7344 56.6961 36.9469 56.4836C37.1625 56.2695 37.457 56.1367 37.7797 56.1367ZM69.9773 38.3609C68.2164 35.9383 65.7516 33.8945 62.9391 32.5281C62.5008 32.668 62.0203 32.7781 61.5125 32.8539C60.9898 32.9313 60.4344 32.9734 59.8602 32.9734C59.2867 32.9734 58.7305 32.9313 58.2078 32.8539C57.7008 32.7789 57.2227 32.668 56.7812 32.5281C55.2047 33.2945 53.732 34.2773 52.4297 35.425C51.1117 36.5852 49.9719 37.9117 49.0812 39.3445C49.1898 39.6609 49.2758 39.9844 49.3406 40.3148C49.4227 40.7531 49.4672 41.2008 49.4672 41.6547C49.4672 42.7711 49.2078 43.8312 48.743 44.7773C48.3133 45.65 47.7133 46.4203 46.982 47.0477C46.9891 47.1477 46.9977 47.2516 47.0062 47.3625L47.0133 47.4227C47.682 47.4383 48.2867 47.7172 48.7297 48.1602C49.1859 48.6141 49.4672 49.243 49.4672 49.9359C49.4672 50.4633 49.3008 50.957 49.0195 51.3625C50.2219 50.9438 51.5086 50.8313 52.7555 51.0211C54.3211 51.2625 55.825 51.982 57.025 53.1805C57.8219 53.9773 58.407 54.9148 58.7812 55.918C59.0914 56.7461 59.2555 57.6164 59.2703 58.4867C59.4383 58.493 59.6336 58.4977 59.8594 58.4977C63.4289 58.4977 66.6602 57.1336 68.9969 54.9258C71.3203 52.7289 72.757 49.6953 72.757 46.3445C72.7594 43.507 71.7164 40.75 69.9773 38.3609ZM63.0883 48.1578C63.0172 48.6828 62.7719 49.1813 62.393 49.5688C62.2578 49.7086 62.1094 49.8297 61.95 49.9344C61.7953 50.0359 61.6242 50.1273 61.4453 50.2023C61.1594 50.3195 60.8492 50.4016 60.5281 50.4414V51.5352C60.5281 51.9031 60.2289 52.2016 59.8617 52.2016C59.4937 52.2016 59.1953 51.9023 59.1953 51.5352V50.3547C59.1797 50.35 59.1641 50.3461 59.1484 50.3414C58.3555 50.1289 57.5961 49.6352 57.0445 48.7938C56.9031 48.5789 56.7766 48.3375 56.6633 48.0719C56.5234 47.7328 56.6836 47.343 57.0242 47.2039C57.3633 47.0625 57.7531 47.2242 57.8922 47.5625C57.9695 47.7461 58.0586 47.9125 58.1578 48.0633C58.5125 48.6055 58.9945 48.9227 59.493 49.0578C59.9937 49.193 60.5094 49.1508 60.9328 48.9734C61.0344 48.9312 61.1297 48.8805 61.2211 48.8203C61.3031 48.7672 61.3758 48.707 61.4383 48.643C61.6195 48.457 61.7375 48.2219 61.7703 47.9805C61.8016 47.7523 61.7547 47.5109 61.6109 47.2914C61.5625 47.2164 61.5047 47.1477 61.4383 47.0813C61.1859 46.8352 60.6477 46.7094 60.0789 46.5766C59.2242 46.3727 58.3141 46.1578 57.6227 45.4492C57.375 45.1969 57.1953 44.8914 57.0844 44.5633C56.9359 44.1289 56.9094 43.6531 57.0094 43.2016C57.1094 42.743 57.3391 42.3023 57.7047 41.9484C57.968 41.6891 58.3008 41.4812 58.7016 41.3438C58.7969 41.3125 58.8984 41.282 59.0031 41.257C59.0672 41.2414 59.1312 41.2258 59.1961 41.2148V40.0742C59.1961 39.7063 59.4953 39.4078 59.8625 39.4078C60.2305 39.4078 60.5289 39.707 60.5289 40.0742V41.1859C60.768 41.2211 61.0047 41.2789 61.2289 41.3633C61.9844 41.6422 62.6172 42.1828 62.9055 43.0289C62.9273 43.1 62.95 43.175 62.9695 43.257C63.0578 43.6133 62.8414 43.9742 62.482 44.0609C62.1258 44.1492 61.7664 43.9305 61.6781 43.5734C61.6695 43.5359 61.6578 43.4961 61.643 43.4563C61.5016 43.0352 61.1687 42.7609 60.7703 42.6125C60.5 42.5125 60.2031 42.4688 59.907 42.4727C59.8937 42.4727 59.8781 42.475 59.8625 42.475H59.8539C59.6727 42.482 59.493 42.5063 59.3203 42.5484C59.2586 42.5641 59.1937 42.582 59.1297 42.6039C58.9234 42.675 58.7602 42.7766 58.6312 42.9008C58.4648 43.0625 58.3586 43.2687 58.3125 43.4836C58.2641 43.7047 58.275 43.9328 58.3461 44.1367C58.3945 44.2828 58.4727 44.4156 58.5789 44.5242C58.9953 44.9516 59.7109 45.1203 60.3836 45.2797C61.1367 45.457 61.8477 45.625 62.368 46.1305C62.5094 46.2703 62.6289 46.4164 62.7266 46.5648C63.0523 47.0641 63.1609 47.6219 63.0883 48.1578ZM55.3484 26.4328C55.2531 26.2094 55.2312 25.9742 55.2797 25.7555C55.3266 25.5359 55.4414 25.3328 55.6164 25.175C55.7273 25.0734 55.8625 25.018 55.9977 25.007C56.1375 24.9961 56.2789 25.0289 56.4055 25.1086L56.8883 25.4188C57.218 25.6289 57.5859 25.7352 57.9555 25.7352V25.7375C58.3211 25.7375 58.6883 25.6313 59.0203 25.4188L59.5094 25.1039C59.6203 25.0328 59.7398 25 59.8617 25C59.9836 25 60.1031 25.0336 60.2141 25.1039L60.7031 25.4188C61.0375 25.6313 61.4031 25.7375 61.7703 25.7375C62.1359 25.7375 62.5031 25.6313 62.8352 25.4188L63.318 25.1086C63.4445 25.0289 63.5859 24.9953 63.7258 25.007C63.8609 25.018 63.9961 25.0734 64.107 25.175C64.282 25.332 64.3969 25.5359 64.4437 25.7555C64.4922 25.975 64.4727 26.2094 64.375 26.4328L62.2531 31.3445C61.9648 31.4219 61.6555 31.4859 61.3211 31.5352C60.8672 31.6016 60.3758 31.6391 59.8617 31.6391C59.3477 31.6391 58.8562 31.6016 58.4023 31.5352C58.0703 31.4867 57.7578 31.4219 57.4719 31.3445L55.3484 26.4328ZM51.5742 52.2617C49.9375 52.2617 48.3031 52.882 47.0633 54.1219C45.825 55.3602 45.2055 56.9961 45.2055 58.6305C45.2055 60.2648 45.8258 61.9016 47.0633 63.1391C48.3039 64.3797 49.9383 65 51.5742 65C53.2086 65 54.843 64.3797 56.0828 63.1398C57.3227 61.9016 57.9406 60.2656 57.9406 58.6313C57.9406 56.9969 57.3227 55.3602 56.0828 54.1227C54.843 52.8812 53.2086 52.2617 51.5742 52.2617ZM55.3234 57.2L51.5164 61.0047C51.257 61.2664 50.8344 61.2664 50.575 61.0047L47.8227 58.2539C47.5633 57.993 47.5633 57.5719 47.8227 57.3102C48.0836 57.0508 48.5047 57.0508 48.7664 57.3102L51.0453 59.5914L54.3805 56.2562C54.6414 55.9953 55.0625 55.9953 55.3242 56.2562C55.5852 56.5156 55.5852 56.9391 55.3234 57.2Z" fill="white"/>
<defs>
<filter id="filter0_d_561_1059" x="0" y="0" width="110" height="110" filterUnits="userSpaceOnUse" color-interpolation-filters="sRGB">
<feFlood flood-opacity="0" result="BackgroundImageFix"/>
<feColorMatrix in="SourceAlpha" type="matrix" values="0 0 0 0 0 0 0 0 0 0 0 0 0 0 0 0 0 0 127 0" result="hardAlpha"/>
<feMorphology radius="2" operator="erode" in="SourceAlpha" result="effect1_dropShadow_561_1059"/>
<feOffset dy="10"/>
<feGaussianBlur stdDeviation="11"/>
<feComposite in2="hardAlpha" operator="out"/>
<feColorMatrix type="matrix" values="0 0 0 0 0.427451 0 0 0 0 0.670588 0 0 0 0 1 0 0 0 0.36 0"/>
<feBlend mode="normal" in2="BackgroundImageFix" result="effect1_dropShadow_561_1059"/>
<feBlend mode="normal" in="SourceGraphic" in2="effect1_dropShadow_561_1059" result="shape"/>
</filter>
<linearGradient id="paint0_linear_561_1059" x1="20" y1="10" x2="90" y2="80" gradientUnits="userSpaceOnUse">
<stop stop-color="#5CA1FE"/>
<stop offset="1" stop-color="#217BF4"/>
</linearGradient>
</defs>
</svg>
