<svg width="107" height="121" viewBox="0 0 107 121" fill="none" xmlns="http://www.w3.org/2000/svg">
<path d="M76.3212 21.1875H28.7704C26.111 21.1875 23.9551 23.3434 23.9551 26.0028V59.7097V99.4358C23.9551 102.095 26.1109 104.251 28.7704 104.251H84.146C86.8054 104.251 88.9613 102.095 88.9613 99.4358V31.42M76.3212 21.1875V27.8085C76.3212 29.8031 77.9381 31.42 79.9327 31.42H88.9613M76.3212 21.1875L88.9613 31.42" stroke="url(#paint0_linear_2_443)" stroke-width="0.994459"/>
<path d="M71.2054 43.5373H37.3383C36.9181 43.5373 36.5151 43.4022 36.218 43.1617C35.9208 42.9212 35.7539 42.595 35.7539 42.255C35.7539 41.9149 35.9208 41.5887 36.218 41.3482C36.5151 41.1078 36.9181 40.9727 37.3383 40.9727H71.2054C71.6257 40.9727 72.0287 41.1078 72.3258 41.3482C72.6229 41.5887 72.7899 41.9149 72.7899 42.255C72.7899 42.595 72.6229 42.9212 72.3258 43.1617C72.0287 43.4022 71.6257 43.5373 71.2054 43.5373Z" fill="#B9DBFF"/>
<path d="M77.8036 47.9318H37.3407C36.9198 47.9318 36.5162 47.7967 36.2187 47.5562C35.9211 47.3157 35.7539 46.9896 35.7539 46.6495C35.7539 46.3094 35.9211 45.9832 36.2187 45.7428C36.5162 45.5023 36.9198 45.3672 37.3407 45.3672H77.8036C78.2244 45.3672 78.628 45.5023 78.9256 45.7428C79.2232 45.9832 79.3903 46.3094 79.3903 46.6495C79.3903 46.9896 79.2232 47.3157 78.9256 47.5562C78.628 47.7967 78.2244 47.9318 77.8036 47.9318Z" fill="#E3DCFF"/>
<path d="M71.2054 63.5046H37.3383C36.9181 63.5046 36.5151 63.3599 36.218 63.1022C35.9208 62.8446 35.7539 62.4951 35.7539 62.1307C35.7539 61.7663 35.9208 61.4169 36.218 61.1592C36.5151 60.9016 36.9181 60.7568 37.3383 60.7568H71.2054C71.6257 60.7568 72.0287 60.9016 72.3258 61.1592C72.6229 61.4169 72.7899 61.7663 72.7899 62.1307C72.7899 62.4951 72.6229 62.8446 72.3258 63.1022C72.0287 63.3599 71.6257 63.5046 71.2054 63.5046Z" fill="#B9DBFF"/>
<path d="M77.8036 67.9001H37.3407C36.9198 67.9001 36.5162 67.7554 36.2187 67.4977C35.9211 67.2401 35.7539 66.8906 35.7539 66.5262C35.7539 66.1619 35.9211 65.8124 36.2187 65.5547C36.5162 65.2971 36.9198 65.1523 37.3407 65.1523H77.8036C78.2244 65.1523 78.628 65.2971 78.9256 65.5547C79.2232 65.8124 79.3903 66.1619 79.3903 66.5262C79.3903 66.8906 79.2232 67.2401 78.9256 67.4977C78.628 67.7554 78.2244 67.9001 77.8036 67.9001Z" fill="#E3DCFF"/>
<path d="M71.2054 83.2873H37.3383C37.1303 83.2873 36.9242 83.2541 36.732 83.1896C36.5398 83.1252 36.3651 83.0308 36.218 82.9117C36.0708 82.7926 35.9541 82.6513 35.8745 82.4957C35.7949 82.3401 35.7539 82.1733 35.7539 82.005C35.7539 81.8366 35.7949 81.6698 35.8745 81.5142C35.9541 81.3587 36.0708 81.2173 36.218 81.0982C36.3651 80.9792 36.5398 80.8847 36.732 80.8203C36.9242 80.7558 37.1303 80.7227 37.3383 80.7227H71.2054C71.6257 80.7227 72.0287 80.8578 72.3258 81.0982C72.6229 81.3387 72.7899 81.6649 72.7899 82.005C72.7899 82.345 72.6229 82.6712 72.3258 82.9117C72.0287 83.1522 71.6257 83.2873 71.2054 83.2873Z" fill="#B9DBFF"/>
<path d="M77.8036 87.6837H37.3407C37.1323 87.6837 36.926 87.6506 36.7335 87.5861C36.5409 87.5217 36.366 87.4272 36.2187 87.3082C36.0713 87.1891 35.9544 87.0477 35.8747 86.8922C35.7949 86.7366 35.7539 86.5698 35.7539 86.4014C35.7539 86.233 35.7949 86.0663 35.8747 85.9107C35.9544 85.7552 36.0713 85.6138 36.2187 85.4947C36.366 85.3756 36.5409 85.2812 36.7335 85.2167C36.926 85.1523 37.1323 85.1191 37.3407 85.1191H77.8036C78.0119 85.1191 78.2183 85.1523 78.4108 85.2167C78.6033 85.2812 78.7782 85.3756 78.9256 85.4947C79.0729 85.6138 79.1898 85.7552 79.2696 85.9107C79.3493 86.0663 79.3903 86.233 79.3903 86.4014C79.3903 86.5698 79.3493 86.7366 79.2696 86.8922C79.1898 87.0477 79.0729 87.1891 78.9256 87.3082C78.7782 87.4272 78.6033 87.5217 78.4108 87.5861C78.2183 87.6506 78.012 87.6837 77.8036 87.6837Z" fill="#E3DCFF"/>
<g filter="url(#filter0_d_2_443)">
<rect x="39.6055" y="4.33398" width="30.4355" height="30.4088" rx="15.2044" fill="white"/>
<rect x="39.937" y="4.66547" width="29.7725" height="29.7458" rx="14.8729" stroke="url(#paint1_linear_2_443)" stroke-width="0.662973"/>
</g>
<path d="M55.1219 18.9424C54.0962 18.9424 53.2181 18.5775 52.4877 17.8477C51.7573 17.1179 51.3921 16.2406 51.3921 15.2158C51.3921 14.191 51.7573 13.3137 52.4877 12.5839C53.2181 11.8542 54.0962 11.4893 55.1219 11.4893C56.1476 11.4893 57.0257 11.8542 57.7561 12.5839C58.4865 13.3137 58.8517 14.191 58.8517 15.2158C58.8517 16.2406 58.4865 17.1179 57.7561 17.8477C57.0257 18.5775 56.1476 18.9424 55.1219 18.9424ZM47.6622 26.3955V23.7869C47.6622 23.259 47.7984 22.7736 48.0706 22.3308C48.3429 21.8879 48.7041 21.5504 49.1542 21.3181C50.1177 20.8367 51.0968 20.4756 52.0914 20.2346C53.086 19.9936 54.0962 19.8734 55.1219 19.874C56.1476 19.874 57.1578 19.9945 58.1524 20.2355C59.147 20.4765 60.1261 20.8374 61.0897 21.3181C61.5403 21.551 61.9018 21.8889 62.1741 22.3317C62.4464 22.7746 62.5822 23.2596 62.5816 23.7869V26.3955H47.6622Z" fill="url(#paint2_linear_2_443)"/>
<g clip-path="url(#clip0_2_443)">
<path opacity="0.42" d="M48.6832 14.0997C49.0087 14.0997 49.2726 13.836 49.2726 13.5108C49.2726 13.1855 49.0087 12.9219 48.6832 12.9219C48.3576 12.9219 48.0938 13.1855 48.0938 13.5108C48.0938 13.836 48.3576 14.0997 48.6832 14.0997Z" fill="#4DD0E1"/>
<path d="M48.6193 13.102C48.6441 13.1537 48.5651 13.2193 48.5344 13.2601C48.4543 13.3666 48.4959 13.4494 48.4362 13.5464C48.3911 13.6194 48.2482 13.6696 48.2213 13.4912C48.2045 13.3795 48.2744 13.2532 48.3219 13.2015C48.4795 13.0304 48.5986 13.0594 48.6193 13.102Z" fill="white"/>
<path d="M48.6834 14.1517C48.3291 14.1517 48.041 13.8639 48.041 13.5099C48.041 13.156 48.3291 12.8682 48.6834 12.8682C49.0376 12.8682 49.3257 13.156 49.3257 13.5099C49.3257 13.8639 49.0372 14.1517 48.6834 14.1517ZM48.6711 12.959C48.3669 12.959 48.1193 13.2064 48.1193 13.5103C48.1193 13.8142 48.3669 14.0616 48.6711 14.0616C48.9753 14.0616 49.2229 13.8142 49.2229 13.5103C49.2229 13.2064 48.9757 12.959 48.6711 12.959Z" fill="#4DC6E1"/>
<path opacity="0.42" d="M48.0968 15.7344C48.5149 15.7344 48.8538 15.3958 48.8538 14.9781C48.8538 14.5603 48.5149 14.2217 48.0968 14.2217C47.6787 14.2217 47.3397 14.5603 47.3397 14.9781C47.3397 15.3958 47.6787 15.7344 48.0968 15.7344Z" fill="#4DD0E1"/>
<path d="M48.0983 15.8048C47.6423 15.8048 47.2713 15.4342 47.2713 14.9786C47.2713 14.523 47.6423 14.1523 48.0983 14.1523C48.5542 14.1523 48.9253 14.523 48.9253 14.9786C48.9253 15.4342 48.5542 15.8048 48.0983 15.8048ZM48.1193 14.2533C47.7164 14.2533 47.3888 14.5807 47.3888 14.9831C47.3888 15.3856 47.7164 15.713 48.1193 15.713C48.5221 15.713 48.8497 15.3856 48.8497 14.9831C48.8497 14.5807 48.5221 14.2533 48.1193 14.2533Z" fill="#4DC6E1"/>
<path opacity="0.7" d="M47.9135 14.4011C48.0672 14.3906 48.1203 14.5002 48.0822 14.5872C48.0333 14.6989 47.9194 14.6591 47.8191 14.7676C47.7499 14.8427 47.6021 14.924 47.5815 14.7582C47.5634 14.6116 47.7258 14.414 47.9135 14.4011Z" fill="white"/>
<path d="M48.3576 14.5976C48.4502 14.5973 48.4614 14.4933 48.4118 14.4377C48.3545 14.3522 48.1626 14.3613 48.2081 14.5023C48.228 14.5645 48.2643 14.598 48.3576 14.5976Z" fill="white"/>
<path opacity="0.42" d="M46.4766 14.3617C47.2176 14.3617 47.8183 13.7615 47.8183 13.0212C47.8183 12.2808 47.2176 11.6807 46.4766 11.6807C45.7356 11.6807 45.1349 12.2808 45.1349 13.0212C45.1349 13.7615 45.7356 14.3617 46.4766 14.3617Z" fill="#4DD0E1"/>
<path opacity="0.7" d="M46.3227 12.0055C46.4761 12.0582 46.5167 12.1951 46.4695 12.312C46.4262 12.4195 46.2633 12.4681 46.1613 12.5236C46.0058 12.6077 45.893 12.717 45.8088 12.8723C45.7274 13.0224 45.5079 13.0832 45.4779 12.865C45.4545 12.6943 45.5607 12.4513 45.6603 12.3267C45.7483 12.2167 45.8692 12.1186 45.9957 12.0558C46.0848 12.0118 46.226 11.9723 46.3227 12.0055Z" fill="white"/>
<path d="M47.0395 12.0813C47.1024 12.1344 47.1097 12.2318 47.0227 12.2621C46.9839 12.273 46.9434 12.2555 46.9032 12.2527C46.8215 12.2471 46.7876 12.2761 46.7177 12.2464C46.6136 12.2018 46.5706 12.1117 46.6202 12.0377C46.6447 12.0014 46.6911 11.9829 46.7324 11.9748C46.8442 11.9532 46.9609 12.0024 47.0395 12.0813Z" fill="white"/>
<path d="M46.4961 14.4327C45.7272 14.4327 45.1016 13.8077 45.1016 13.0394C45.1016 12.2712 45.7272 11.6465 46.4961 11.6465C47.2651 11.6465 47.8906 12.2715 47.8906 13.0398C47.8906 13.808 47.2647 14.4327 46.4961 14.4327ZM46.5178 11.7939C45.8164 11.7939 45.2461 12.3637 45.2461 13.0646C45.2461 13.7654 45.8167 14.3352 46.5178 14.3352C47.2189 14.3352 47.7896 13.765 47.7896 13.0646C47.7896 12.3641 47.2189 11.7939 46.5178 11.7939Z" fill="#4DC6E1"/>
<path d="M47.4961 13.2533C47.3845 13.2209 47.3887 13.3407 47.2712 13.5318C47.1929 13.659 47.0279 13.8242 46.7593 13.8902C46.6013 13.929 46.5303 13.9622 46.5257 14.0202C46.5177 14.1191 46.6523 14.1456 46.8478 14.0946C47.366 13.9601 47.7328 13.3222 47.4961 13.2533ZM48.6703 15.156C48.585 15.127 48.6052 15.2584 48.4367 15.3768C48.257 15.5033 48.1482 15.4729 48.1419 15.5445C48.1353 15.621 48.3223 15.6207 48.5171 15.4757C48.686 15.3506 48.7566 15.1853 48.6703 15.156ZM49.1511 13.58C49.1714 13.4727 49.1458 13.2474 49.0371 13.3194C48.9934 13.3484 49.0623 13.4724 49.0413 13.579C49.0133 13.7218 48.9602 13.7966 48.835 13.8857C48.8063 13.906 48.8217 13.9437 48.8759 13.9241C49.0189 13.8728 49.1161 13.7666 49.1511 13.58Z" fill="white"/>
</g>
<g filter="url(#filter1_d_2_443)">
<rect x="7.70328" y="58.7402" width="23.285" height="23.2646" rx="11.6323" fill="white"/>
<rect x="8.03476" y="59.0717" width="22.622" height="22.6016" rx="11.3008" stroke="url(#paint3_linear_2_443)" stroke-width="0.662973"/>
</g>
<g clip-path="url(#clip1_2_443)">
<path d="M18.0653 70.5288C17.4709 70.5288 16.9656 70.3208 16.5495 69.9047C16.1334 69.4886 15.9253 68.9833 15.9253 68.3888C15.9253 68.1273 15.9669 67.8805 16.0501 67.6484C16.1334 67.4163 16.2582 67.2054 16.4246 67.0157C16.3771 66.8968 16.3414 66.772 16.3176 66.6412C16.2939 66.5104 16.282 66.3796 16.282 66.2488C16.282 65.7971 16.404 65.3957 16.6479 65.0447C16.8919 64.6938 17.2098 64.4355 17.6016 64.2701C17.8394 63.9966 18.1188 63.7826 18.4398 63.6281C18.7608 63.4735 19.1115 63.396 19.492 63.3955C19.8724 63.3955 20.2231 63.4728 20.5441 63.6273C20.8651 63.7819 21.1445 63.9959 21.3823 64.2693C21.7746 64.4358 22.0928 64.6945 22.3368 65.0454C22.5807 65.3964 22.7025 65.7975 22.702 66.2488C22.702 66.3796 22.6901 66.5104 22.6663 66.6412C22.6425 66.772 22.6069 66.8968 22.5593 67.0157C22.7258 67.2059 22.8506 67.417 22.9338 67.6491C23.017 67.8812 23.0587 68.1278 23.0587 68.3888C23.0587 68.9833 22.8506 69.4886 22.4345 69.9047C22.0184 70.3208 21.5131 70.5288 20.9186 70.5288H18.0653ZM15.212 76.2355C14.8196 76.2355 14.4837 76.0957 14.204 75.8161C13.9244 75.5365 13.7848 75.2007 13.7853 74.8089V74.2382C13.7853 73.834 13.8895 73.4623 14.0978 73.1232C14.306 72.7842 14.5823 72.5257 14.9266 72.3478C15.6638 71.9793 16.4128 71.7028 17.1736 71.5182C17.9345 71.3337 18.7073 71.2417 19.492 71.2422C20.2766 71.2422 21.0494 71.3344 21.8103 71.519C22.5712 71.7035 23.3202 71.9798 24.0573 72.3478C24.4021 72.5262 24.6786 72.7849 24.8869 73.124C25.0952 73.463 25.1991 73.8344 25.1987 74.2382V74.8089C25.1987 75.2012 25.0588 75.5372 24.7792 75.8168C24.4996 76.0964 24.1638 76.236 23.772 76.2355H15.212Z" fill="url(#paint4_linear_2_443)"/>
</g>
<g clip-path="url(#clip2_2_443)">
<path opacity="0.42" d="M14.6464 66.2107C14.8955 66.2107 15.0974 66.009 15.0974 65.7601C15.0974 65.5113 14.8955 65.3096 14.6464 65.3096C14.3974 65.3096 14.1955 65.5113 14.1955 65.7601C14.1955 66.009 14.3974 66.2107 14.6464 66.2107Z" fill="#4DD0E1"/>
<path d="M14.5976 65.4488C14.6166 65.4884 14.5561 65.5386 14.5326 65.5698C14.4714 65.6513 14.5032 65.7146 14.4575 65.7888C14.423 65.8446 14.3137 65.8831 14.2931 65.7466C14.2803 65.6611 14.3337 65.5645 14.3701 65.5249C14.4907 65.3941 14.5818 65.4162 14.5976 65.4488Z" fill="white"/>
<path d="M14.6475 66.2517C14.3767 66.2517 14.1564 66.0317 14.1564 65.7611C14.1564 65.4906 14.3767 65.2705 14.6475 65.2705C14.9182 65.2705 15.1385 65.4906 15.1385 65.7611C15.1385 66.0317 14.918 66.2517 14.6475 66.2517ZM14.6381 65.3399C14.4055 65.3399 14.2163 65.529 14.2163 65.7614C14.2163 65.9938 14.4055 66.1828 14.6381 66.1828C14.8707 66.1828 15.0599 65.9938 15.0599 65.7614C15.0599 65.529 14.8709 65.3399 14.6381 65.3399Z" fill="#4DC6E1"/>
<path opacity="0.42" d="M14.1961 67.4621C14.5157 67.4621 14.7748 67.2032 14.7748 66.8839C14.7748 66.5645 14.5157 66.3057 14.1961 66.3057C13.8764 66.3057 13.6173 66.5645 13.6173 66.8839C13.6173 67.2032 13.8764 67.4621 14.1961 67.4621Z" fill="#4DD0E1"/>
<path d="M14.1948 67.5152C13.8463 67.5152 13.5627 67.2319 13.5627 66.8836C13.5627 66.5353 13.8463 66.252 14.1948 66.252C14.5434 66.252 14.827 66.5353 14.827 66.8836C14.827 67.2319 14.5434 67.5152 14.1948 67.5152ZM14.2109 66.3291C13.9029 66.3291 13.6525 66.5794 13.6525 66.8871C13.6525 67.1947 13.9029 67.445 14.2109 67.445C14.5188 67.445 14.7693 67.1947 14.7693 66.8871C14.7693 66.5794 14.5188 66.3291 14.2109 66.3291Z" fill="#4DC6E1"/>
<path opacity="0.7" d="M14.0579 66.4429C14.1755 66.4349 14.2161 66.5188 14.187 66.5853C14.1496 66.6707 14.0624 66.6403 13.9857 66.7233C13.9328 66.7808 13.8197 66.843 13.804 66.7161C13.7901 66.604 13.9144 66.4528 14.0579 66.4429Z" fill="white"/>
<path d="M14.3991 66.594C14.47 66.5938 14.4785 66.5142 14.4406 66.4717C14.3967 66.4063 14.25 66.4132 14.2847 66.5211C14.3 66.5687 14.3278 66.5943 14.3991 66.594Z" fill="white"/>
<path opacity="0.42" d="M12.9602 66.4135C13.5271 66.4135 13.9867 65.9543 13.9867 65.3879C13.9867 64.8215 13.5271 64.3623 12.9602 64.3623C12.3933 64.3623 11.9337 64.8215 11.9337 65.3879C11.9337 65.9543 12.3933 66.4135 12.9602 66.4135Z" fill="#4DD0E1"/>
<path opacity="0.7" d="M12.8402 64.6081C12.9575 64.6484 12.9885 64.7531 12.9525 64.8426C12.9193 64.9248 12.7947 64.9619 12.7167 65.0044C12.5977 65.0688 12.5114 65.1524 12.447 65.2712C12.3847 65.3861 12.2168 65.4325 12.1938 65.2656C12.1759 65.135 12.2572 64.9491 12.3334 64.8538C12.4007 64.7697 12.4932 64.6946 12.59 64.6465C12.6581 64.6129 12.7661 64.5827 12.8402 64.6081Z" fill="white"/>
<path d="M13.3875 64.6674C13.4356 64.708 13.4412 64.7825 13.3746 64.8057C13.345 64.814 13.3139 64.8007 13.2832 64.7985C13.2207 64.7943 13.1947 64.8164 13.1413 64.7937C13.0616 64.7595 13.0287 64.6906 13.0667 64.634C13.0854 64.6062 13.121 64.5921 13.1525 64.5859C13.238 64.5694 13.3273 64.607 13.3875 64.6674Z" fill="white"/>
<path d="M12.9713 66.4656C12.383 66.4656 11.9044 65.9874 11.9044 65.3997C11.9044 64.8119 12.383 64.334 12.9713 64.334C13.5596 64.334 14.0382 64.8122 14.0382 65.3999C14.0382 65.9877 13.5593 66.4656 12.9713 66.4656ZM12.9879 64.4468C12.4513 64.4468 12.0149 64.8827 12.0149 65.4189C12.0149 65.9551 12.4515 66.391 12.9879 66.391C13.5243 66.391 13.9609 65.9548 13.9609 65.4189C13.9609 64.883 13.5243 64.4468 12.9879 64.4468Z" fill="#4DC6E1"/>
<path d="M13.735 65.5636C13.6496 65.5388 13.6528 65.6304 13.563 65.7767C13.503 65.8739 13.3768 66.0004 13.1713 66.0509C13.0504 66.0806 12.9961 66.1059 12.9926 66.1503C12.9864 66.226 13.0894 66.2463 13.239 66.2073C13.6355 66.1043 13.9161 65.6163 13.735 65.5636ZM14.6333 67.0193C14.568 66.9971 14.5835 67.0976 14.4546 67.1882C14.3171 67.2849 14.2339 67.2617 14.2291 67.3165C14.224 67.375 14.3671 67.3748 14.5161 67.2638C14.6453 67.1681 14.6994 67.0417 14.6333 67.0193ZM15.0011 65.8135C15.0167 65.7315 14.9971 65.5591 14.9139 65.6141C14.8805 65.6363 14.9332 65.7312 14.9171 65.8127C14.8957 65.9221 14.8551 65.9793 14.7593 66.0474C14.7374 66.0629 14.7491 66.0918 14.7906 66.0768C14.9 66.0375 14.9744 65.9563 15.0011 65.8135Z" fill="white"/>
</g>
<g filter="url(#filter2_d_2_443)">
<rect x="72.7893" y="83.4023" width="26.4019" height="26.3787" rx="13.1894" fill="white"/>
<rect x="73.1208" y="83.7338" width="25.7389" height="25.7158" rx="12.8579" stroke="url(#paint5_linear_2_443)" stroke-width="0.662973"/>
</g>
<path d="M85.891 96.3081C85.0013 96.3081 84.2396 95.9913 83.606 95.3577C82.9724 94.7241 82.6556 93.9624 82.6556 93.0726V90.2416C82.6556 89.9046 82.7737 89.618 83.0099 89.3818C83.2461 89.1456 83.5324 89.0278 83.8689 89.0283C84.0711 89.0283 84.2633 89.0755 84.4456 89.1699C84.6279 89.2642 84.7727 89.3991 84.88 89.5743C84.9878 89.3991 85.1326 89.2642 85.3143 89.1699C85.496 89.0755 85.6883 89.0283 85.891 89.0283C86.0933 89.0283 86.2855 89.0755 86.4678 89.1699C86.65 89.2642 86.7948 89.3991 86.9021 89.5743C87.01 89.3991 87.1548 89.2642 87.3365 89.1699C87.5182 89.0755 87.7104 89.0283 87.9132 89.0283C88.2502 89.0283 88.5368 89.1464 88.773 89.3826C89.0092 89.6188 89.127 89.9051 89.1265 90.2416V93.0726C89.1265 93.9624 88.8097 94.7241 88.1761 95.3577C87.5425 95.9913 86.7808 96.3081 85.891 96.3081ZM81.0379 102.779C80.593 102.779 80.212 102.62 79.8949 102.303C79.5779 101.986 79.4196 101.606 79.4201 101.161V100.514C79.4201 100.056 79.5382 99.6344 79.7744 99.2499C80.0106 98.8654 80.3239 98.5724 80.7143 98.3707C81.5501 97.9528 82.3994 97.6392 83.2622 97.43C84.125 97.2208 85.0013 97.1164 85.891 97.117C86.7808 97.117 87.6571 97.2216 88.5198 97.4308C89.3826 97.64 90.2319 97.9533 91.0678 98.3707C91.4587 98.5729 91.7723 98.8663 92.0085 99.2507C92.2447 99.6352 92.3625 100.056 92.3619 100.514V101.161C92.3619 101.606 92.2034 101.987 91.8863 102.304C91.5693 102.621 91.1886 102.78 90.7442 102.779H81.0379Z" fill="url(#paint6_linear_2_443)"/>
<g clip-path="url(#clip3_2_443)">
<path opacity="0.42" d="M80.6679 91.8713C80.9503 91.8713 81.1792 91.6426 81.1792 91.3605C81.1792 91.0783 80.9503 90.8496 80.6679 90.8496C80.3855 90.8496 80.1565 91.0783 80.1565 91.3605C80.1565 91.6426 80.3855 91.8713 80.6679 91.8713Z" fill="#4DD0E1"/>
<path d="M80.6115 91.0049C80.633 91.0497 80.5645 91.1067 80.5378 91.1421C80.4684 91.2344 80.5045 91.3062 80.4526 91.3904C80.4135 91.4537 80.2896 91.4973 80.2662 91.3426C80.2517 91.2457 80.3123 91.136 80.3535 91.0912C80.4902 90.9428 80.5936 90.968 80.6115 91.0049Z" fill="white"/>
<path d="M80.6664 91.9153C80.3594 91.9153 80.1096 91.6658 80.1096 91.359C80.1096 91.0523 80.3594 90.8027 80.6664 90.8027C80.9734 90.8027 81.2232 91.0523 81.2232 91.359C81.2232 91.6658 80.9731 91.9153 80.6664 91.9153ZM80.6558 90.8815C80.3921 90.8815 80.1775 91.0959 80.1775 91.3593C80.1775 91.6228 80.3921 91.8372 80.6558 91.8372C80.9195 91.8372 81.1341 91.6228 81.1341 91.3593C81.1341 91.0959 80.9198 90.8815 80.6558 90.8815Z" fill="#4DC6E1"/>
<path opacity="0.42" d="M80.1588 93.2888C80.5215 93.2888 80.8155 92.9951 80.8155 92.6327C80.8155 92.2703 80.5215 91.9766 80.1588 91.9766C79.7961 91.9766 79.5021 92.2703 79.5021 92.6327C79.5021 92.9951 79.7961 93.2888 80.1588 93.2888Z" fill="#4DD0E1"/>
<path d="M80.159 93.3505C79.7634 93.3505 79.4416 93.0289 79.4416 92.6337C79.4416 92.2385 79.7634 91.917 80.159 91.917C80.5545 91.917 80.8763 92.2385 80.8763 92.6337C80.8763 93.0289 80.5545 93.3505 80.159 93.3505ZM80.1772 92.0046C79.8277 92.0046 79.5435 92.2885 79.5435 92.6377C79.5435 92.9868 79.8277 93.2708 80.1772 93.2708C80.5266 93.2708 80.8108 92.9868 80.8108 92.6377C80.8108 92.2885 80.5266 92.0046 80.1772 92.0046Z" fill="#4DC6E1"/>
<path opacity="0.7" d="M80 92.1324C80.1334 92.1234 80.1795 92.2184 80.1464 92.2938C80.104 92.3908 80.0052 92.3562 79.9182 92.4504C79.8582 92.5155 79.73 92.5861 79.7121 92.4422C79.6963 92.315 79.8373 92.1436 80 92.1324Z" fill="white"/>
<path d="M80.3841 92.3055C80.4644 92.3052 80.4741 92.2149 80.4311 92.1668C80.3814 92.0926 80.215 92.1005 80.2544 92.2228C80.2717 92.2767 80.3032 92.3058 80.3841 92.3055Z" fill="white"/>
<path opacity="0.42" d="M78.754 92.0992C79.3967 92.0992 79.9178 91.5785 79.9178 90.9363C79.9178 90.2941 79.3967 89.7734 78.754 89.7734C78.1112 89.7734 77.5901 90.2941 77.5901 90.9363C77.5901 91.5785 78.1112 92.0992 78.754 92.0992Z" fill="#4DD0E1"/>
<path opacity="0.7" d="M78.6207 90.0527C78.7537 90.0984 78.7889 90.2171 78.748 90.3186C78.7104 90.4118 78.5691 90.4539 78.4806 90.5021C78.3458 90.5751 78.2479 90.6699 78.1748 90.8046C78.1042 90.9348 77.9138 90.9875 77.8878 90.7983C77.8675 90.6502 77.9596 90.4394 78.046 90.3313C78.1224 90.2359 78.2272 90.1508 78.337 90.0963C78.4143 90.0581 78.5367 90.0239 78.6207 90.0527Z" fill="white"/>
<path d="M79.2411 90.1202C79.2957 90.1663 79.302 90.2508 79.2266 90.2771C79.1929 90.2865 79.1578 90.2713 79.1229 90.2689C79.052 90.2641 79.0226 90.2892 78.962 90.2635C78.8716 90.2247 78.8344 90.1466 78.8774 90.0824C78.8986 90.0509 78.9389 90.0348 78.9747 90.0279C79.0717 90.0091 79.1729 90.0518 79.2411 90.1202Z" fill="white"/>
<path d="M78.7685 92.1601C78.1015 92.1601 77.5588 91.6179 77.5588 90.9515C77.5588 90.285 78.1015 89.7432 78.7685 89.7432C79.4355 89.7432 79.9782 90.2853 79.9782 90.9518C79.9782 91.6182 79.4352 92.1601 78.7685 92.1601ZM78.7873 89.8711C78.1788 89.8711 77.6841 90.3654 77.6841 90.9733C77.6841 91.5812 78.1791 92.0755 78.7873 92.0755C79.3955 92.0755 79.8905 91.5809 79.8905 90.9733C79.8905 90.3657 79.3955 89.8711 78.7873 89.8711Z" fill="#4DC6E1"/>
<path d="M79.6371 91.1364C79.5404 91.1082 79.544 91.2122 79.4421 91.378C79.3741 91.4883 79.231 91.6316 78.998 91.6889C78.8609 91.7226 78.7993 91.7514 78.7954 91.8017C78.7884 91.8874 78.9052 91.9105 79.0748 91.8662C79.5243 91.7495 79.8425 91.1961 79.6371 91.1364ZM80.6557 92.7869C80.5817 92.7618 80.5993 92.8757 80.4531 92.9785C80.2972 93.0882 80.2028 93.0618 80.1974 93.1239C80.1916 93.1903 80.3539 93.19 80.5229 93.0642C80.6694 92.9557 80.7306 92.8124 80.6557 92.7869ZM81.0728 91.4198C81.0904 91.3268 81.0682 91.1313 80.9739 91.1937C80.936 91.2189 80.9957 91.3265 80.9775 91.4189C80.9533 91.5428 80.9072 91.6077 80.7986 91.685C80.7737 91.7026 80.7871 91.7353 80.8341 91.7183C80.9581 91.6738 81.0425 91.5816 81.0728 91.4198Z" fill="white"/>
</g>
<defs>
<filter id="filter0_d_2_443" x="32.733" y="0.897745" width="44.1804" height="44.1537" filterUnits="userSpaceOnUse" color-interpolation-filters="sRGB">
<feFlood flood-opacity="0" result="BackgroundImageFix"/>
<feColorMatrix in="SourceAlpha" type="matrix" values="0 0 0 0 0 0 0 0 0 0 0 0 0 0 0 0 0 0 127 0" result="hardAlpha"/>
<feMorphology radius="1.71812" operator="erode" in="SourceAlpha" result="effect1_dropShadow_2_443"/>
<feOffset dy="3.43624"/>
<feGaussianBlur stdDeviation="4.2953"/>
<feComposite in2="hardAlpha" operator="out"/>
<feColorMatrix type="matrix" values="0 0 0 0 0 0 0 0 0 0.521176 0 0 0 0 0.592157 0 0 0 0.25 0"/>
<feBlend mode="normal" in2="BackgroundImageFix" result="effect1_dropShadow_2_443"/>
<feBlend mode="normal" in="SourceGraphic" in2="effect1_dropShadow_2_443" result="shape"/>
</filter>
<filter id="filter1_d_2_443" x="0.830798" y="55.304" width="37.0299" height="37.0096" filterUnits="userSpaceOnUse" color-interpolation-filters="sRGB">
<feFlood flood-opacity="0" result="BackgroundImageFix"/>
<feColorMatrix in="SourceAlpha" type="matrix" values="0 0 0 0 0 0 0 0 0 0 0 0 0 0 0 0 0 0 127 0" result="hardAlpha"/>
<feMorphology radius="1.71812" operator="erode" in="SourceAlpha" result="effect1_dropShadow_2_443"/>
<feOffset dy="3.43624"/>
<feGaussianBlur stdDeviation="4.2953"/>
<feComposite in2="hardAlpha" operator="out"/>
<feColorMatrix type="matrix" values="0 0 0 0 0 0 0 0 0 0.521176 0 0 0 0 0.592157 0 0 0 0.25 0"/>
<feBlend mode="normal" in2="BackgroundImageFix" result="effect1_dropShadow_2_443"/>
<feBlend mode="normal" in="SourceGraphic" in2="effect1_dropShadow_2_443" result="shape"/>
</filter>
<filter id="filter2_d_2_443" x="65.9168" y="79.9661" width="40.1468" height="40.1239" filterUnits="userSpaceOnUse" color-interpolation-filters="sRGB">
<feFlood flood-opacity="0" result="BackgroundImageFix"/>
<feColorMatrix in="SourceAlpha" type="matrix" values="0 0 0 0 0 0 0 0 0 0 0 0 0 0 0 0 0 0 127 0" result="hardAlpha"/>
<feMorphology radius="1.71812" operator="erode" in="SourceAlpha" result="effect1_dropShadow_2_443"/>
<feOffset dy="3.43624"/>
<feGaussianBlur stdDeviation="4.2953"/>
<feComposite in2="hardAlpha" operator="out"/>
<feColorMatrix type="matrix" values="0 0 0 0 0 0 0 0 0 0.521176 0 0 0 0 0.592157 0 0 0 0.25 0"/>
<feBlend mode="normal" in2="BackgroundImageFix" result="effect1_dropShadow_2_443"/>
<feBlend mode="normal" in="SourceGraphic" in2="effect1_dropShadow_2_443" result="shape"/>
</filter>
<linearGradient id="paint0_linear_2_443" x1="23.3532" y1="21.1875" x2="88.3594" y2="104.251" gradientUnits="userSpaceOnUse">
<stop stop-color="#89AEFF"/>
<stop offset="1" stop-color="#16D1E3"/>
</linearGradient>
<linearGradient id="paint1_linear_2_443" x1="39.6055" y1="6.56993" x2="66.4364" y2="33.8719" gradientUnits="userSpaceOnUse">
<stop stop-color="#29F9F8"/>
<stop offset="1" stop-color="#0176FF"/>
</linearGradient>
<linearGradient id="paint2_linear_2_443" x1="53.2197" y1="11.5638" x2="56.2358" y2="26.3221" gradientUnits="userSpaceOnUse">
<stop stop-color="#2F327D"/>
<stop offset="1" stop-color="#0075FF"/>
</linearGradient>
<linearGradient id="paint3_linear_2_443" x1="7.70328" y1="60.4509" x2="28.2305" y2="81.3386" gradientUnits="userSpaceOnUse">
<stop stop-color="#29F9F8"/>
<stop offset="1" stop-color="#0176FF"/>
</linearGradient>
<linearGradient id="paint4_linear_2_443" x1="13.7853" y1="63.3955" x2="25.1987" y2="76.2355" gradientUnits="userSpaceOnUse">
<stop stop-color="#2D3683"/>
<stop offset="1" stop-color="#0176FF"/>
</linearGradient>
<linearGradient id="paint5_linear_2_443" x1="72.7893" y1="85.342" x2="96.0643" y2="109.026" gradientUnits="userSpaceOnUse">
<stop stop-color="#29F9F8"/>
<stop offset="1" stop-color="#0176FF"/>
</linearGradient>
<linearGradient id="paint6_linear_2_443" x1="79.4201" y1="89.0283" x2="92.3619" y2="102.779" gradientUnits="userSpaceOnUse">
<stop stop-color="#2D3684"/>
<stop offset="1" stop-color="#0176FF"/>
</linearGradient>
<clipPath id="clip0_2_443">
<rect width="4.47581" height="4.47189" fill="white" transform="translate(44.9766 11.4883)"/>
</clipPath>
<clipPath id="clip1_2_443">
<rect width="13.697" height="13.685" fill="white" transform="translate(12.4962 62.8467)"/>
</clipPath>
<clipPath id="clip2_2_443">
<rect width="3.42426" height="3.42126" fill="white" transform="translate(11.8107 64.2139)"/>
</clipPath>
<clipPath id="clip3_2_443">
<rect width="3.88263" height="3.87922" fill="white" transform="translate(77.4494 89.6084)"/>
</clipPath>
</defs>
</svg>
