<svg width="33" height="31" viewBox="0 0 33 31" fill="none" xmlns="http://www.w3.org/2000/svg">
<path d="M10.4937 0C9.981 0 9.50746 0.27408 9.2521 0.718605L0 16.8241H7.7044L16.5954 1.61586C17.0139 0.899958 16.4976 0 15.6683 0H10.4937Z" fill="#2196F3"/>
<path d="M14.9472 23.2674C15.446 23.2674 15.9089 23.0078 16.169 22.5822L18.6893 18.458C19.1266 17.7424 18.6116 16.8241 17.773 16.8241H7.7044L3.93756 23.2674H14.9472Z" fill="#2196F3"/>
<path d="M18.6872 6.80124C18.1959 6.80124 17.7389 7.05311 17.4766 7.46848L14.6429 11.9551C14.1913 12.6702 14.7051 13.6025 15.5508 13.6025H25.1577L28.9947 6.80124H18.6872Z" fill="#45CDFF"/>
<path d="M16.6538 28.6756C16.2499 29.3914 16.7671 30.2771 17.5891 30.2771H22.7848C23.3037 30.2771 23.7821 29.9963 24.035 29.5431L32.9323 13.6025H25.1577L16.6538 28.6756Z" fill="#45CDFF"/>
<path d="M32.9323 13.6025L28.9947 6.80124L25.1577 13.6025H32.9323Z" fill="#13A5FF"/>
<path d="M0 16.8241L3.93756 23.2674L7.7044 16.8241H0Z" fill="#0358E8"/>
</svg>
