<svg width="700" height="35" viewBox="0 0 700 35" fill="none" xmlns="http://www.w3.org/2000/svg">
<g clip-path="url(#clip0_67_39)">
<path d="M24.0559 21.5803C8.73888 26.3686 7.32074 10.1903 14.6671 6.47859C6.7822 5.99692 0.995813 15.2052 5.53367 22.6003C9.74118 29.4569 20.2555 28.9186 24.0559 21.5803Z" fill="#C2C2C2"/>
<ellipse cx="12.2532" cy="2.45671" rx="12.2532" ry="2.45671" transform="matrix(0.816953 -0.576704 0.577557 0.81635 0.000213623 24.9653)" stroke="#999999" stroke-width="0.907672"/>
<path d="M5.53367 22.6003C0.995813 15.2052 6.7822 5.99692 14.6671 6.47859C9.92445 8.87475 8.83459 16.4666 12.7789 20.2588L5.53367 22.6003Z" fill="#C2C2C2"/>
</g>
<path d="M38.0922 26.3731C36.7824 26.3731 35.601 26.1451 34.5482 25.6891C33.5036 25.2332 32.6415 24.5824 31.9617 23.7368C31.2902 22.8829 30.8632 21.8715 30.6809 20.7026L33.7897 20.2301C34.0549 21.2912 34.5979 22.1119 35.4187 22.6922C36.2477 23.2725 37.201 23.5627 38.2788 23.5627C38.9171 23.5627 39.5181 23.4632 40.0819 23.2643C40.6456 23.0653 41.1015 22.7751 41.4497 22.3938C41.8062 22.0124 41.9844 21.5441 41.9844 20.9886C41.9844 20.7399 41.943 20.5119 41.8601 20.3047C41.7772 20.0891 41.6528 19.8985 41.487 19.7327C41.3295 19.5669 41.1223 19.4176 40.8653 19.285C40.6166 19.1441 40.3264 19.0239 39.9948 18.9244L35.3689 17.5565C34.971 17.4404 34.5399 17.2871 34.0757 17.0964C33.6197 16.8974 33.1845 16.628 32.77 16.2881C32.3637 15.9399 32.028 15.5005 31.7627 14.97C31.5057 14.4311 31.3772 13.7679 31.3772 12.9803C31.3772 11.828 31.6674 10.8622 32.2477 10.0829C32.8363 9.29539 33.6238 8.70679 34.6104 8.31715C35.6052 7.92751 36.7078 7.73684 37.9181 7.74513C39.1451 7.75342 40.2394 7.96482 41.201 8.37933C42.1627 8.78554 42.9668 9.37829 43.6135 10.1576C44.2601 10.9368 44.716 11.8778 44.9813 12.9803L41.7606 13.5399C41.628 12.9099 41.371 12.3752 40.9896 11.9358C40.6166 11.4881 40.1565 11.1482 39.6093 10.9161C39.0705 10.684 38.4943 10.5596 37.8808 10.5431C37.2839 10.5348 36.7285 10.626 36.2145 10.8166C35.7088 10.999 35.2985 11.2643 34.9834 11.6125C34.6767 11.9607 34.5233 12.3669 34.5233 12.8311C34.5233 13.2705 34.656 13.6311 34.9213 13.913C35.1865 14.1866 35.514 14.4063 35.9036 14.5721C36.3016 14.7296 36.7036 14.8622 37.1098 14.97L40.3181 15.8653C40.7575 15.9814 41.2508 16.1389 41.7979 16.3379C42.3451 16.5368 42.8715 16.8145 43.3772 17.171C43.8829 17.5275 44.2974 17.9959 44.6207 18.5762C44.9523 19.1565 45.1181 19.8943 45.1181 20.7897C45.1181 21.7181 44.9233 22.5347 44.5337 23.2394C44.1523 23.9358 43.6342 24.5161 42.9793 24.9803C42.3243 25.4446 41.5741 25.7927 40.7285 26.0249C39.8912 26.257 39.0124 26.3731 38.0922 26.3731ZM48.0585 26V8.09332H59.6232V10.9037H51.0553V15.3182H58.131V18.1285H51.0553V23.1896H59.6232V26H48.0585ZM62.8554 26V8.09332H65.8896L74.1963 20.715V8.09332H77.2305V26H74.1963L65.8896 13.3783V26H62.8554ZM85.258 26V10.9037H79.4632V8.09332H94.0496V10.9037H88.2548V26H85.258ZM96.2866 26V8.09332H103.686C103.86 8.09332 104.083 8.10161 104.357 8.11819C104.631 8.12648 104.883 8.15135 105.116 8.1928C106.152 8.35031 107.006 8.69435 107.677 9.22492C108.357 9.75549 108.859 10.427 109.182 11.2394C109.514 12.0436 109.679 12.9389 109.679 13.9254C109.679 15.3845 109.31 16.6404 108.573 17.6933C107.835 18.7378 106.703 19.3845 105.178 19.6332L103.897 19.7451H99.2835V26H96.2866ZM106.571 26L103.039 18.713L106.086 18.0415L109.965 26H106.571ZM99.2835 16.9472H103.561C103.727 16.9472 103.914 16.9389 104.121 16.9223C104.328 16.9057 104.519 16.8726 104.693 16.8228C105.19 16.6985 105.58 16.4788 105.862 16.1638C106.152 15.8487 106.355 15.4923 106.471 15.0943C106.595 14.6964 106.658 14.3068 106.658 13.9254C106.658 13.5441 106.595 13.1544 106.471 12.7565C106.355 12.3503 106.152 11.9897 105.862 11.6747C105.58 11.3596 105.19 11.1399 104.693 11.0156C104.519 10.9658 104.328 10.9368 104.121 10.9285C103.914 10.912 103.727 10.9037 103.561 10.9037H99.2835V16.9472ZM116.966 26V18.6632L110.873 8.09332H114.367L118.483 15.2311L122.587 8.09332H126.081L120 18.6632V26H116.966ZM132.049 26V8.09332H143.614V10.9037H135.046V15.3182H142.122V18.1285H135.046V23.1896H143.614V26H132.049ZM154.037 26.3731C152.246 26.3731 150.712 25.9834 149.436 25.2041C148.159 24.4166 147.177 23.3223 146.488 21.9213C145.809 20.5202 145.469 18.8954 145.469 17.0467C145.469 15.198 145.809 13.5731 146.488 12.1721C147.177 10.771 148.159 9.68088 149.436 8.9016C150.712 8.11404 152.246 7.72026 154.037 7.72026C156.101 7.72026 157.821 8.23839 159.197 9.27466C160.573 10.3026 161.539 11.6912 162.095 13.4405L159.073 14.2736C158.725 13.1047 158.132 12.1928 157.295 11.5379C156.457 10.8747 155.371 10.5431 154.037 10.5431C152.835 10.5431 151.831 10.8125 151.027 11.3513C150.231 11.8902 149.63 12.6487 149.224 13.627C148.826 14.5969 148.623 15.7368 148.615 17.0467C148.615 18.3565 148.814 19.5005 149.212 20.4788C149.618 21.4487 150.223 22.2031 151.027 22.742C151.831 23.2808 152.835 23.5503 154.037 23.5503C155.371 23.5503 156.457 23.2187 157.295 22.5555C158.132 21.8922 158.725 20.9803 159.073 19.8197L162.095 20.6529C161.539 22.4021 160.573 23.7948 159.197 24.8311C157.821 25.8591 156.101 26.3731 154.037 26.3731ZM172.895 26.3731C171.105 26.3731 169.571 25.9834 168.294 25.2041C167.018 24.4166 166.035 23.3223 165.347 21.9213C164.667 20.5202 164.328 18.8954 164.328 17.0467C164.328 15.198 164.667 13.5731 165.347 12.1721C166.035 10.771 167.018 9.68088 168.294 8.9016C169.571 8.11404 171.105 7.72026 172.895 7.72026C174.686 7.72026 176.22 8.11404 177.496 8.9016C178.781 9.68088 179.764 10.771 180.444 12.1721C181.132 13.5731 181.476 15.198 181.476 17.0467C181.476 18.8954 181.132 20.5202 180.444 21.9213C179.764 23.3223 178.781 24.4166 177.496 25.2041C176.22 25.9834 174.686 26.3731 172.895 26.3731ZM172.895 23.5503C174.097 23.5586 175.096 23.2933 175.892 22.7544C176.696 22.2156 177.297 21.457 177.695 20.4788C178.102 19.5005 178.305 18.3565 178.305 17.0467C178.305 15.7368 178.102 14.6011 177.695 13.6394C177.297 12.6695 176.696 11.9151 175.892 11.3762C175.096 10.8374 174.097 10.5596 172.895 10.5431C171.693 10.5348 170.694 10.8 169.899 11.3389C169.103 11.8778 168.502 12.6363 168.095 13.6145C167.697 14.5928 167.499 15.7368 167.499 17.0467C167.499 18.3565 167.697 19.4964 168.095 20.4663C168.493 21.428 169.09 22.1782 169.886 22.7171C170.69 23.256 171.693 23.5337 172.895 23.5503ZM184.448 26V8.09332H187.147L193.339 20.7772L199.532 8.09332H202.231V26H199.433V14.5223L193.936 26H192.743L187.259 14.5223V26H184.448Z" fill="#8F8F8F"/>
<path d="M266.79 6.56662C267.122 6.23468 267.122 5.69649 266.79 5.36454C266.458 5.0326 265.919 5.0326 265.586 5.36454L266.79 6.56662ZM257.906 9.05385C257.906 8.58441 257.525 8.20385 257.055 8.20385C256.585 8.20385 256.204 8.58441 256.204 9.05385L257.906 9.05385ZM263.238 15.8595C263.708 15.8595 264.089 15.479 264.089 15.0095C264.089 14.5401 263.708 14.1595 263.238 14.1595L263.238 15.8595ZM257.055 14.9521L256.204 14.9521L257.055 14.9521ZM265.586 5.36454L256.55 14.3911L257.753 15.5932L266.79 6.56662L265.586 5.36454ZM257.906 14.9521L257.906 9.05385L256.204 9.05385L256.204 14.9521L257.906 14.9521ZM257.055 15.8596L263.238 15.8595L263.238 14.1595L257.055 14.1596L257.055 15.8596ZM256.55 14.3911C257.05 13.8914 257.906 14.2453 257.906 14.9521L256.204 14.9521C256.204 15.7599 257.181 16.1644 257.753 15.5932L256.55 14.3911Z" fill="#C2C2C2"/>
<path d="M243.675 27.451C243.343 27.7829 243.343 28.3211 243.675 28.653C244.008 28.985 244.547 28.985 244.879 28.653L243.675 27.451ZM252.56 24.9637C252.56 25.4332 252.941 25.8137 253.411 25.8137C253.881 25.8137 254.262 25.4332 254.262 24.9637L252.56 24.9637ZM247.227 18.1581C246.757 18.1581 246.376 18.5386 246.376 19.0081C246.376 19.4775 246.757 19.8581 247.227 19.8581L247.227 18.1581ZM253.411 19.0655L254.262 19.0655L253.411 19.0655ZM244.879 28.653L253.915 19.6264L252.712 18.4244L243.675 27.451L244.879 28.653ZM252.56 19.0655L252.56 24.9637L254.262 24.9637L254.262 19.0655L252.56 19.0655ZM253.411 18.158L247.227 18.1581L247.227 19.8581L253.411 19.858L253.411 18.158ZM253.915 19.6264C253.415 20.1262 252.56 19.7723 252.56 19.0655L254.262 19.0655C254.262 18.2577 253.284 17.8532 252.712 18.4244L253.915 19.6264Z" fill="#C2C2C2"/>
<path d="M287.64 25.5H283.792C283.541 25.5 283.336 25.4393 283.177 25.3178C283.025 25.1964 282.903 25.0522 282.812 24.8852L279.488 19.0783C279.427 19.2453 279.359 19.3895 279.283 19.511L276.186 24.8852C276.079 25.037 275.954 25.1774 275.81 25.3064C275.666 25.4355 275.48 25.5 275.252 25.5H271.654L276.994 16.9605L271.859 8.91063H275.708C275.958 8.91063 276.14 8.94479 276.254 9.01311C276.376 9.07383 276.482 9.1801 276.573 9.33191L279.875 14.9224C279.913 14.8237 279.955 14.7289 280 14.6378C280.053 14.5467 280.11 14.4518 280.171 14.3531L283.063 9.38884C283.169 9.22185 283.279 9.1004 283.393 9.02449C283.515 8.94859 283.663 8.91063 283.837 8.91063H287.526L282.323 16.8011L287.64 25.5ZM298.899 22.4258V25.5H288.902V8.91063H292.751V22.4258H298.899ZM306.036 16.71C306.559 16.71 307.003 16.6455 307.368 16.5165C307.74 16.3798 308.043 16.1939 308.279 15.9586C308.514 15.7232 308.685 15.45 308.791 15.1388C308.897 14.82 308.951 14.4784 308.951 14.114C308.951 13.3853 308.711 12.816 308.233 12.4061C307.763 11.9962 307.03 11.7913 306.036 11.7913H304.487V16.71H306.036ZM314.211 25.5H310.727C310.082 25.5 309.618 25.2571 309.338 24.7713L306.582 19.955C306.453 19.7501 306.309 19.6021 306.15 19.511C305.99 19.4123 305.762 19.363 305.466 19.363H304.487V25.5H300.639V8.91063H306.036C307.235 8.91063 308.256 9.03588 309.099 9.28637C309.949 9.52927 310.639 9.87085 311.171 10.3111C311.71 10.7514 312.101 11.2713 312.344 11.871C312.586 12.4706 312.708 13.1234 312.708 13.8294C312.708 14.3683 312.636 14.8769 312.492 15.3551C312.347 15.8333 312.135 16.2774 311.854 16.6873C311.573 17.0896 311.224 17.4501 310.806 17.7689C310.397 18.0877 309.922 18.3496 309.383 18.5546C309.634 18.6836 309.869 18.8468 310.089 19.0442C310.309 19.2339 310.507 19.4616 310.681 19.7273L314.211 25.5ZM339.07 8.91063V25.5H335.677V15.9586C335.677 15.7384 335.681 15.4993 335.689 15.2412C335.704 14.9832 335.727 14.7213 335.757 14.4556L331.351 22.9837C331.214 23.2494 331.028 23.4505 330.793 23.5872C330.565 23.7238 330.303 23.7921 330.007 23.7921H329.483C329.187 23.7921 328.922 23.7238 328.686 23.5872C328.459 23.4505 328.276 23.2494 328.14 22.9837L323.733 14.4328C323.756 14.7061 323.775 14.9756 323.79 15.2412C323.806 15.4993 323.813 15.7384 323.813 15.9586V25.5H320.42V8.91063H323.358C323.525 8.91063 323.669 8.91443 323.79 8.92202C323.919 8.92961 324.033 8.95238 324.132 8.99033C324.231 9.02829 324.318 9.08901 324.394 9.17251C324.477 9.24842 324.557 9.35848 324.633 9.5027L328.903 17.9169C329.054 18.2054 329.199 18.5052 329.335 18.8164C329.48 19.1276 329.616 19.4465 329.745 19.7729C329.874 19.4389 330.007 19.1125 330.144 18.7937C330.288 18.4749 330.44 18.1712 330.599 17.8828L334.858 9.5027C334.933 9.35848 335.009 9.24842 335.085 9.17251C335.169 9.08901 335.26 9.02829 335.358 8.99033C335.457 8.95238 335.567 8.92961 335.689 8.92202C335.818 8.91443 335.966 8.91063 336.133 8.91063H339.07ZM345.924 11.871V15.7422H351.139V18.5887H345.924V22.5396H352.733V25.5H342.053V8.91063H352.733V11.871H345.924ZM369.931 17.1996C369.931 18.3989 369.722 19.5072 369.305 20.5243C368.895 21.5339 368.314 22.4106 367.563 23.1545C366.811 23.8908 365.904 24.4677 364.841 24.8852C363.786 25.2951 362.614 25.5 361.323 25.5H354.879V8.91063H361.323C362.614 8.91063 363.786 9.11938 364.841 9.53686C365.904 9.95435 366.811 10.5312 367.563 11.2675C368.314 12.0038 368.895 12.8805 369.305 13.8977C369.722 14.9072 369.931 16.0079 369.931 17.1996ZM365.991 17.1996C365.991 16.3798 365.885 15.6397 365.673 14.9794C365.46 14.319 365.153 13.7611 364.75 13.3056C364.356 12.8426 363.87 12.4896 363.293 12.2467C362.716 11.9962 362.059 11.871 361.323 11.871H358.75V22.5396H361.323C362.059 22.5396 362.716 22.4182 363.293 22.1753C363.87 21.9248 364.356 21.5718 364.75 21.1164C365.153 20.6534 365.46 20.0917 365.673 19.4313C365.885 18.7709 365.991 18.027 365.991 17.1996ZM375.846 25.5H371.975V8.91063H375.846V25.5ZM387.586 19.158L386.049 14.615C385.935 14.3266 385.813 13.9888 385.684 13.6017C385.555 13.2069 385.426 12.7819 385.297 12.3264C385.183 12.7895 385.062 13.2183 384.933 13.613C384.804 14.0078 384.682 14.3493 384.568 14.6378L383.043 19.158H387.586ZM393.7 25.5H390.717C390.383 25.5 390.113 25.4241 389.909 25.2723C389.704 25.1129 389.548 24.9117 389.442 24.6688L388.463 21.7768H382.155L381.175 24.6688C381.092 24.8814 380.94 25.0749 380.72 25.2495C380.508 25.4165 380.242 25.5 379.923 25.5H376.917L383.339 8.91063H387.278L393.7 25.5Z" fill="#8F8F8F"/>
<path d="M457.731 4.62911V13.9805H456.753C456.519 13.9805 456.371 13.8666 456.31 13.6389L456.181 12.6327C455.774 13.082 455.319 13.4451 454.814 13.722C454.31 13.9928 453.731 14.1282 453.079 14.1282C452.568 14.1282 452.116 14.0451 451.722 13.8789C451.334 13.7066 451.008 13.4666 450.743 13.1589C450.479 12.8512 450.279 12.4788 450.143 12.0419C450.014 11.6049 449.949 11.1218 449.949 10.5926V4.62911H451.593V10.5926C451.593 11.3003 451.753 11.848 452.073 12.2357C452.399 12.6235 452.894 12.8173 453.559 12.8173C454.045 12.8173 454.497 12.7035 454.916 12.4758C455.341 12.2419 455.731 11.9219 456.088 11.5157V4.62911H457.731ZM463.577 14.1282C462.839 14.1282 462.269 13.922 461.869 13.5097C461.475 13.0973 461.278 12.5035 461.278 11.728V6.00458H460.152C460.054 6.00458 459.971 5.97689 459.903 5.9215C459.835 5.85996 459.801 5.76764 459.801 5.64456V4.98913L461.334 4.79527L461.712 1.90586C461.731 1.81355 461.771 1.7397 461.832 1.68431C461.9 1.62277 461.986 1.592 462.091 1.592H462.922V4.81374H465.626V6.00458H462.922V11.6172C462.922 12.0111 463.017 12.3034 463.208 12.4942C463.399 12.685 463.645 12.7804 463.946 12.7804C464.119 12.7804 464.266 12.7589 464.389 12.7158C464.519 12.6665 464.629 12.6142 464.722 12.5588C464.814 12.5035 464.891 12.4542 464.953 12.4111C465.02 12.3619 465.079 12.3373 465.128 12.3373C465.214 12.3373 465.291 12.3896 465.359 12.4942L465.839 13.2789C465.556 13.5435 465.214 13.7528 464.814 13.9066C464.414 14.0543 464.002 14.1282 463.577 14.1282ZM469.252 6.50307C469.548 5.86303 469.911 5.36454 470.342 5.0076C470.773 4.6445 471.299 4.46295 471.92 4.46295C472.117 4.46295 472.305 4.48449 472.483 4.52757C472.668 4.57065 472.831 4.63834 472.973 4.73066L472.853 5.95843C472.816 6.11228 472.723 6.18921 472.576 6.18921C472.49 6.18921 472.363 6.17075 472.197 6.13382C472.031 6.0969 471.843 6.07843 471.634 6.07843C471.339 6.07843 471.074 6.12151 470.84 6.20767C470.613 6.29383 470.406 6.42307 470.222 6.59539C470.043 6.76155 469.88 6.9708 469.732 7.22312C469.591 7.46929 469.462 7.75238 469.345 8.0724V13.9805H467.692V4.62911H468.634C468.812 4.62911 468.936 4.66296 469.003 4.73066C469.071 4.79835 469.117 4.91528 469.142 5.08145L469.252 6.50307ZM480.667 8.28473C480.667 7.90316 480.612 7.55545 480.501 7.24158C480.396 6.92156 480.239 6.6477 480.03 6.41999C479.827 6.18613 479.578 6.00766 479.282 5.88457C478.987 5.75534 478.652 5.69072 478.276 5.69072C477.488 5.69072 476.864 5.9215 476.402 6.38307C475.947 6.83848 475.664 7.47237 475.553 8.28473H480.667ZM481.996 12.6696C481.793 12.9158 481.55 13.1312 481.267 13.3158C480.984 13.4943 480.679 13.642 480.353 13.7589C480.033 13.8758 479.701 13.962 479.356 14.0174C479.012 14.0789 478.67 14.1097 478.331 14.1097C477.685 14.1097 477.088 14.002 476.541 13.7866C475.999 13.5651 475.528 13.245 475.128 12.8266C474.734 12.4019 474.427 11.8788 474.205 11.2572C473.984 10.6356 473.873 9.92175 473.873 9.11555C473.873 8.4632 473.971 7.85393 474.168 7.28774C474.371 6.72155 474.66 6.23229 475.036 5.81995C475.411 5.40147 475.87 5.07529 476.411 4.84143C476.953 4.60142 477.562 4.48141 478.239 4.48141C478.799 4.48141 479.316 4.5768 479.79 4.76758C480.27 4.95221 480.682 5.22299 481.027 5.57994C481.378 5.93073 481.652 6.36768 481.849 6.89079C482.046 7.40775 482.144 7.99855 482.144 8.66321C482.144 8.92169 482.116 9.09401 482.061 9.18017C482.006 9.26633 481.901 9.30941 481.747 9.30941H475.497C475.516 9.90021 475.596 10.4141 475.737 10.851C475.885 11.288 476.088 11.6542 476.347 11.9496C476.605 12.2388 476.913 12.4573 477.27 12.605C477.627 12.7465 478.027 12.8173 478.47 12.8173C478.882 12.8173 479.236 12.7712 479.532 12.6788C479.833 12.5804 480.092 12.4758 480.307 12.365C480.522 12.2542 480.701 12.1527 480.842 12.0603C480.99 11.9619 481.116 11.9126 481.221 11.9126C481.356 11.9126 481.461 11.965 481.535 12.0696L481.996 12.6696Z" fill="#8F8F8F"/>
<path d="M465.835 30.6794C465.961 30.6794 466.07 30.7284 466.161 30.8264L467.043 31.7923C466.427 32.5202 465.674 33.0837 464.786 33.4826C463.904 33.8816 462.84 34.0811 461.594 34.0811C460.502 34.0811 459.512 33.8921 458.623 33.5141C457.741 33.1362 456.985 32.6077 456.355 31.9288C455.732 31.2498 455.249 30.4379 454.906 29.493C454.563 28.5481 454.392 27.5087 454.392 26.3748C454.392 25.2409 454.57 24.2015 454.927 23.2566C455.291 22.3117 455.798 21.4997 456.449 20.8208C457.1 20.1419 457.877 19.6134 458.78 19.2354C459.69 18.8575 460.694 18.6685 461.793 18.6685C462.864 18.6685 463.816 18.8435 464.649 19.1934C465.482 19.5434 466.206 20.0089 466.822 20.5898L466.087 21.6292C466.038 21.7062 465.975 21.7692 465.898 21.8182C465.828 21.8672 465.734 21.8917 465.615 21.8917C465.482 21.8917 465.325 21.8252 465.143 21.6922C464.968 21.5592 464.733 21.4122 464.439 21.2513C464.152 21.0833 463.795 20.9328 463.368 20.7998C462.941 20.6668 462.409 20.6003 461.772 20.6003C461.023 20.6003 460.337 20.7333 459.715 20.9993C459.092 21.2582 458.553 21.6362 458.098 22.1332C457.65 22.6231 457.3 23.2286 457.048 23.9495C456.803 24.6634 456.68 25.4719 456.68 26.3748C456.68 27.2917 456.81 28.1071 457.069 28.8211C457.328 29.535 457.685 30.1404 458.14 30.6374C458.595 31.1343 459.13 31.5123 459.746 31.7713C460.362 32.0303 461.027 32.1597 461.741 32.1597C462.175 32.1597 462.563 32.1352 462.906 32.0863C463.256 32.0303 463.575 31.9498 463.862 31.8448C464.156 31.7398 464.432 31.6068 464.691 31.4458C464.95 31.2778 465.206 31.0783 465.457 30.8474C465.513 30.7984 465.573 30.7599 465.636 30.7319C465.699 30.6969 465.765 30.6794 465.835 30.6794ZM471.6 18.4165V33.9131H469.542V18.4165H471.6ZM482.22 27.3932C482.22 26.9872 482.16 26.6128 482.041 26.2698C481.929 25.9268 481.761 25.6293 481.537 25.3774C481.313 25.1254 481.04 24.9294 480.718 24.7894C480.396 24.6494 480.025 24.5794 479.605 24.5794C478.745 24.5794 478.066 24.8279 477.569 25.3249C477.079 25.8218 476.767 26.5113 476.634 27.3932H482.22ZM483.91 32.3907C483.658 32.6847 483.368 32.9402 483.039 33.1572C482.71 33.3671 482.36 33.5386 481.989 33.6716C481.618 33.8046 481.233 33.9026 480.834 33.9656C480.442 34.0286 480.053 34.0601 479.668 34.0601C478.933 34.0601 478.251 33.9376 477.621 33.6926C476.998 33.4406 476.456 33.0767 475.994 32.6007C475.539 32.1178 475.182 31.5228 474.923 30.8159C474.671 30.1019 474.545 29.283 474.545 28.3591C474.545 27.6172 474.66 26.9277 474.891 26.2908C475.122 25.6468 475.451 25.0869 475.878 24.6109C476.312 24.135 476.841 23.7605 477.464 23.4875C478.087 23.2146 478.787 23.0781 479.563 23.0781C480.214 23.0781 480.813 23.1866 481.359 23.4036C481.912 23.6135 482.388 23.9215 482.787 24.3275C483.186 24.7334 483.497 25.2339 483.721 25.8288C483.952 26.4238 484.068 27.1027 484.068 27.8656C484.068 28.1806 484.033 28.3941 483.963 28.5061C483.893 28.6111 483.763 28.6636 483.574 28.6636H476.582C476.603 29.3005 476.694 29.857 476.855 30.3329C477.016 30.8019 477.236 31.1938 477.516 31.5088C477.803 31.8238 478.143 32.0583 478.535 32.2122C478.926 32.3662 479.364 32.4432 479.847 32.4432C480.302 32.4432 480.694 32.3907 481.023 32.2857C481.359 32.1807 481.646 32.0688 481.884 31.9498C482.129 31.8238 482.332 31.7083 482.493 31.6033C482.661 31.4983 482.808 31.4458 482.934 31.4458C483.102 31.4458 483.231 31.5088 483.322 31.6348L483.91 32.3907ZM488.83 25.2934C489.173 24.5934 489.586 24.044 490.069 23.645C490.552 23.2461 491.133 23.0466 491.812 23.0466C492.043 23.0466 492.259 23.0746 492.462 23.1306C492.672 23.1796 492.854 23.2566 493.008 23.3616L492.872 24.9049C492.823 25.0939 492.707 25.1884 492.525 25.1884C492.427 25.1884 492.28 25.1709 492.085 25.1359C491.889 25.0939 491.679 25.0729 491.455 25.0729C491.126 25.0729 490.835 25.1219 490.583 25.2199C490.331 25.3109 490.104 25.4509 489.901 25.6398C489.705 25.8218 489.53 26.0493 489.376 26.3223C489.222 26.5883 489.078 26.8927 488.945 27.2357V33.9131H486.898V23.2461H488.074C488.298 23.2461 488.448 23.2881 488.525 23.3721C488.609 23.449 488.669 23.589 488.704 23.792L488.83 25.2934ZM497.265 18.4165V27.4772H497.748C497.895 27.4772 498.017 27.4562 498.115 27.4142C498.213 27.3722 498.315 27.2882 498.42 27.1622L501.612 23.645C501.71 23.512 501.818 23.4141 501.937 23.3511C502.056 23.2811 502.207 23.2461 502.388 23.2461H504.257L500.488 27.3722C500.285 27.6312 500.068 27.8306 499.837 27.9706C499.97 28.0616 500.086 28.1666 500.184 28.2856C500.289 28.4046 500.39 28.5341 500.488 28.6741L504.499 33.9131H502.661C502.493 33.9131 502.347 33.8851 502.221 33.8291C502.102 33.7731 501.993 33.6716 501.895 33.5246L498.598 29.241C498.493 29.08 498.388 28.9785 498.283 28.9365C498.178 28.8875 498.021 28.8631 497.811 28.8631H497.265V33.9131H495.218V18.4165H497.265Z" fill="#8F8F8F"/>
<path d="M503.875 6.29173C503.826 6.35943 503.777 6.41174 503.728 6.44866C503.678 6.48559 503.611 6.50405 503.525 6.50405C503.432 6.50405 503.331 6.46713 503.22 6.39328C503.109 6.31327 502.971 6.22711 502.805 6.1348C502.645 6.04248 502.445 5.9594 502.205 5.88555C501.971 5.80555 501.681 5.76554 501.337 5.76554C500.875 5.76554 500.469 5.84863 500.118 6.01479C499.767 6.1748 499.472 6.40866 499.232 6.71637C498.998 7.02408 498.82 7.39642 498.697 7.83337C498.58 8.27032 498.521 8.75958 498.521 9.30115C498.521 9.86734 498.586 10.372 498.715 10.8151C498.844 11.252 499.026 11.6213 499.26 11.9229C499.5 12.2183 499.786 12.446 500.118 12.606C500.457 12.7598 500.835 12.8368 501.254 12.8368C501.654 12.8368 501.983 12.7906 502.241 12.6983C502.5 12.5998 502.712 12.4921 502.878 12.3752C503.051 12.2583 503.192 12.1536 503.303 12.0613C503.42 11.9629 503.534 11.9136 503.645 11.9136C503.78 11.9136 503.885 11.9659 503.958 12.0706L504.42 12.6706C504.217 12.9229 503.986 13.1383 503.728 13.3168C503.469 13.4953 503.189 13.646 502.888 13.7691C502.592 13.8861 502.281 13.9722 501.955 14.0276C501.629 14.083 501.297 14.1107 500.958 14.1107C500.374 14.1107 499.829 14.003 499.324 13.7876C498.826 13.5722 498.392 13.2614 498.023 12.8552C497.653 12.4429 497.364 11.9382 497.155 11.3413C496.946 10.7443 496.841 10.0643 496.841 9.30115C496.841 8.60572 496.936 7.96261 497.127 7.3718C497.324 6.78099 497.607 6.27327 497.977 5.84863C498.352 5.41783 498.81 5.08242 499.352 4.84241C499.9 4.60239 500.527 4.48239 501.235 4.48239C501.894 4.48239 502.472 4.59008 502.971 4.80548C503.475 5.01473 503.922 5.31321 504.309 5.70092L503.875 6.29173ZM508.206 5.87632C508.606 5.45168 509.049 5.11319 509.535 4.86087C510.021 4.60855 510.581 4.48239 511.215 4.48239C511.726 4.48239 512.175 4.56855 512.563 4.74086C512.957 4.90703 513.283 5.14704 513.541 5.46091C513.806 5.76862 514.006 6.14095 514.141 6.5779C514.277 7.01485 514.344 7.49796 514.344 8.02722V13.9814H512.692V8.02722C512.692 7.31949 512.529 6.77176 512.203 6.38404C511.883 5.99017 511.394 5.79324 510.735 5.79324C510.249 5.79324 509.793 5.91017 509.369 6.14403C508.95 6.37789 508.563 6.69483 508.206 7.09486V13.9814H506.553V0.383666H508.206V5.87632Z" fill="#8F8F8F"/>
<path d="M490.853 8.0958C490.694 8.06601 490.53 8.05111 490.362 8.05111C490.054 8.05111 489.766 8.11815 489.497 8.25224C489.229 8.38634 488.996 8.56761 488.797 8.79606C488.603 9.02451 488.449 9.28773 488.335 9.58571C488.221 9.87872 488.164 10.1842 488.164 10.502C488.164 10.8198 488.231 11.0682 488.365 11.2469C488.504 11.4208 488.705 11.5077 488.968 11.5077C489.098 11.5077 489.227 11.4878 489.356 11.4481C489.49 11.4084 489.617 11.3388 489.736 11.2395C489.855 11.1352 489.964 10.9986 490.064 10.8298C490.163 10.6609 490.245 10.4498 490.309 10.1966L490.853 8.0958ZM491.725 10.0029C491.645 10.3207 491.606 10.5815 491.606 10.7851C491.611 10.9837 491.643 11.1427 491.702 11.2618C491.762 11.3761 491.846 11.4555 491.956 11.5002C492.065 11.5449 492.189 11.5673 492.328 11.5673C492.537 11.5673 492.733 11.5027 492.917 11.3736C493.105 11.2395 493.269 11.0533 493.408 10.8149C493.547 10.5765 493.657 10.2934 493.736 9.96563C493.821 9.63785 493.863 9.28028 493.863 8.8929C493.863 8.24728 493.761 7.67863 493.557 7.18696C493.359 6.6953 493.078 6.28557 492.716 5.95779C492.353 5.62505 491.921 5.37673 491.419 5.21284C490.923 5.04399 490.376 4.95956 489.78 4.95956C489.125 4.95956 488.519 5.08372 487.963 5.33204C487.407 5.57539 486.922 5.91061 486.51 6.33772C486.103 6.76482 485.783 7.26891 485.549 7.84997C485.321 8.43103 485.206 9.05679 485.206 9.72725C485.206 10.5417 485.333 11.2594 485.586 11.8802C485.84 12.496 486.187 13.0125 486.629 13.4297C487.071 13.8419 487.59 14.1523 488.186 14.3608C488.787 14.5694 489.435 14.6737 490.131 14.6737C490.513 14.6737 490.871 14.6514 491.203 14.6067C491.536 14.5669 491.841 14.5098 492.12 14.4353C492.398 14.3658 492.651 14.2839 492.879 14.1895C493.108 14.1001 493.312 14.0033 493.49 13.899C493.619 13.8245 493.734 13.8021 493.833 13.8319C493.932 13.8617 494.004 13.9362 494.049 14.0554L494.302 14.7184C493.786 15.0561 493.182 15.3318 492.492 15.5453C491.802 15.7589 491.015 15.8656 490.131 15.8656C489.232 15.8656 488.4 15.7241 487.635 15.441C486.87 15.1579 486.207 14.7507 485.646 14.2193C485.09 13.6929 484.653 13.0497 484.335 12.2899C484.022 11.53 483.866 10.6758 483.866 9.72725C483.866 9.19585 483.933 8.67935 484.067 8.17775C484.206 7.67615 484.402 7.20683 484.655 6.76979C484.908 6.32779 485.214 5.92303 485.571 5.55552C485.929 5.18801 486.326 4.87265 486.763 4.60943C487.2 4.34622 487.672 4.1426 488.179 3.99857C488.69 3.84958 489.224 3.77509 489.78 3.77509C490.486 3.77509 491.161 3.89428 491.807 4.13266C492.457 4.36608 493.031 4.70379 493.528 5.1458C494.029 5.58284 494.429 6.1192 494.727 6.75489C495.025 7.38562 495.174 8.09829 495.174 8.8929C495.174 9.4243 495.094 9.92342 494.936 10.3903C494.782 10.8521 494.563 11.2544 494.28 11.5971C494.002 11.9398 493.672 12.2104 493.289 12.4091C492.912 12.6028 492.5 12.6996 492.053 12.6996C491.71 12.6996 491.407 12.6201 491.144 12.4612C490.88 12.3023 490.699 12.0465 490.6 11.6939C490.307 12.0515 489.996 12.3073 489.669 12.4612C489.341 12.6152 488.986 12.6922 488.603 12.6922C488.291 12.6922 488.017 12.6375 487.784 12.5283C487.556 12.419 487.362 12.27 487.203 12.0813C487.049 11.8876 486.932 11.6616 486.853 11.4034C486.778 11.1402 486.741 10.8546 486.741 10.5467C486.741 10.2636 486.776 9.97805 486.845 9.69C486.92 9.39699 487.029 9.11639 487.173 8.8482C487.317 8.57506 487.496 8.32177 487.709 8.08835C487.928 7.84997 488.181 7.64387 488.469 7.47005C488.762 7.29126 489.09 7.1522 489.453 7.05287C489.82 6.94858 490.222 6.89643 490.659 6.89643C491.047 6.89643 491.377 6.92623 491.65 6.98583C491.923 7.04542 492.187 7.12985 492.44 7.23911L491.725 10.0029Z" fill="#8F8F8F"/>
<g clip-path="url(#clip1_67_39)">
<path d="M448.687 8.47288C448.687 12.8377 445.145 16.3771 440.774 16.3771C436.402 16.3771 432.86 12.8377 432.86 8.47288C432.86 4.10807 436.402 0.568618 440.774 0.568618C445.145 0.568618 448.687 4.10807 448.687 8.47288Z" fill="#D8D8D8" stroke="#8F8F8F" stroke-width="1.13724"/>
<path d="M441.667 7.57956C441.206 7.11874 440.585 6.85269 439.933 6.83642C439.28 6.82016 438.647 7.05493 438.163 7.49218L438.071 7.57956L436.633 9.01677C436.164 9.48551 435.898 10.1185 435.89 10.7807C435.882 11.443 436.133 12.0822 436.59 12.5621C437.047 13.0419 437.674 13.3246 438.336 13.3496C438.999 13.3747 439.645 13.1403 440.137 12.6964L440.229 12.609L441.308 11.531C441.399 11.4396 441.452 11.3169 441.456 11.1879C441.46 11.0589 441.414 10.9332 441.329 10.8364C441.244 10.7396 441.124 10.6789 440.996 10.6666C440.867 10.6544 440.739 10.6915 440.636 10.7705L440.589 10.8127L439.509 11.8907C439.23 12.1718 438.851 12.3329 438.454 12.34C438.058 12.347 437.674 12.1994 437.384 11.9284C437.095 11.6575 436.922 11.2845 436.903 10.8886C436.884 10.4927 437.021 10.105 437.283 9.80777L437.352 9.73512L438.79 8.29842C438.932 8.15687 439.1 8.04458 439.285 7.96797C439.47 7.89136 439.669 7.85193 439.869 7.85193C440.07 7.85193 440.268 7.89136 440.453 7.96797C440.638 8.04458 440.806 8.15687 440.948 8.29842C441.044 8.39368 441.173 8.44717 441.308 8.44712C441.443 8.44707 441.572 8.39349 441.668 8.29817C441.763 8.20284 441.816 8.07357 441.816 7.93881C441.816 7.80405 441.763 7.67482 441.667 7.57956ZM444.904 4.34647C444.443 3.88565 443.822 3.6196 443.169 3.60333C442.517 3.58707 441.884 3.82184 441.4 4.25909L441.308 4.34647L440.229 5.42501C440.138 5.51643 440.085 5.63911 440.081 5.76813C440.077 5.89714 440.122 6.02282 440.208 6.11963C440.293 6.21644 440.412 6.27713 440.541 6.28937C440.67 6.30161 440.798 6.26448 440.9 6.18553L440.948 6.14336L442.027 5.06584C442.307 4.78772 442.684 4.62902 443.079 4.62313C443.474 4.61723 443.856 4.7646 444.145 5.03423C444.433 5.30386 444.606 5.67473 444.626 6.06881C444.646 6.4629 444.513 6.84948 444.253 7.14723L444.185 7.22038L442.746 8.6576C442.46 8.94332 442.072 9.10383 441.667 9.10383C441.263 9.10383 440.875 8.94332 440.589 8.6576C440.541 8.61039 440.485 8.57295 440.424 8.54739C440.362 8.52183 440.296 8.50866 440.229 8.50864C440.162 8.50862 440.096 8.52174 440.034 8.54725C439.973 8.57276 439.916 8.61017 439.869 8.65734C439.822 8.70451 439.784 8.76051 439.759 8.82215C439.733 8.88379 439.72 8.94986 439.72 9.01659C439.72 9.08332 439.733 9.1494 439.759 9.21106C439.784 9.27272 439.822 9.32875 439.869 9.37595C440.33 9.83676 440.951 10.1028 441.604 10.1191C442.256 10.1353 442.889 9.90058 443.373 9.46333L443.466 9.37595L444.904 7.93874C445.381 7.46239 445.649 6.81641 445.649 6.14286C445.649 5.4693 445.381 4.82281 444.904 4.34647Z" fill="#5E5E5E"/>
</g>
<path d="M580.434 17.2244C580.434 23.4393 575.273 28.5844 568.774 28.5844C562.275 28.5844 557.115 23.4393 557.115 17.2244C557.115 11.0095 562.275 5.86443 568.774 5.86443C575.273 5.86443 580.434 11.0095 580.434 17.2244Z" stroke="url(#paint0_linear_67_39)" stroke-width="6.12339"/>
<path d="M585.789 31.1973C593.919 31.1973 600.51 24.7405 600.51 16.7757H585.817V22.754H591.717C585.789 28.364 577.024 23.349 577.166 16.7757C577.273 11.8185 581.335 8.36067 585.817 8.36067C588.682 8.36067 590.894 9.63567 592.398 11.364L596.77 7.17067C594.074 4.21476 590.153 2.354 585.789 2.354C577.658 2.354 571.067 8.81081 571.067 16.7757C571.067 24.7405 577.658 31.1973 585.789 31.1973Z" fill="url(#paint1_linear_67_39)"/>
<g clip-path="url(#clip2_67_39)">
<path fill-rule="evenodd" clip-rule="evenodd" d="M577.609 28.7671C579.297 27.5246 580.703 25.935 581.717 24.1064C579.485 22.9002 577.772 20.7841 577.298 18.3135C576.955 20.8216 575.437 23.0312 573.244 24.3243C574.357 26.0949 575.849 27.6121 577.609 28.7671ZM572.84 9.91336C575.143 11.1095 576.784 13.2855 577.242 15.7979C577.597 13.0881 579.164 10.9098 581.285 9.62723C580.176 7.88037 578.697 6.38272 576.955 5.23975C575.263 6.48518 573.854 8.07938 572.84 9.91336Z" fill="url(#paint2_linear_67_39)"/>
</g>
<path d="M681.3 12.3274C681.3 18.8362 676.017 24.1136 669.5 24.1136C662.983 24.1136 657.7 18.8362 657.7 12.3274C657.7 5.81856 662.983 0.541239 669.5 0.541239C676.017 0.541239 681.3 5.81856 681.3 12.3274Z" stroke="#8F8F8F" stroke-width="0.907672"/>
<path d="M643.359 32.5309H640.649L640.15 33.9126H639.294L641.541 27.735H642.477L644.714 33.9126H643.858L643.359 32.5309ZM643.127 31.8712L642.004 28.7334L640.881 31.8712H643.127ZM646.727 30.8015C646.727 30.1953 646.864 29.6516 647.137 29.1702C647.411 28.6829 647.782 28.3025 648.252 28.0292C648.727 27.7558 649.253 27.6191 649.829 27.6191C650.507 27.6191 651.098 27.7825 651.603 28.1094C652.108 28.4363 652.477 28.8998 652.709 29.5H651.737C651.565 29.1256 651.315 28.8374 650.988 28.6353C650.667 28.4333 650.281 28.3323 649.829 28.3323C649.396 28.3323 649.006 28.4333 648.662 28.6353C648.317 28.8374 648.046 29.1256 647.85 29.5C647.654 29.8685 647.556 30.3023 647.556 30.8015C647.556 31.2948 647.654 31.7286 647.85 32.103C648.046 32.4715 648.317 32.7567 648.662 32.9588C649.006 33.1608 649.396 33.2619 649.829 33.2619C650.281 33.2619 650.667 33.1638 650.988 32.9677C651.315 32.7656 651.565 32.4774 651.737 32.103H652.709C652.477 32.6973 652.108 33.1579 651.603 33.4847C651.098 33.8056 650.507 33.9661 649.829 33.9661C649.253 33.9661 648.727 33.8324 648.252 33.5649C647.782 33.2916 647.411 32.9142 647.137 32.4328C646.864 31.9515 646.727 31.4077 646.727 30.8015ZM656.065 28.359V30.436H658.329V31.1046H656.065V33.244H658.596V33.9126H655.253V27.6904H658.596V28.359H656.065ZM663.701 30.8104L665.609 33.9126H664.691L663.202 31.4879L661.785 33.9126H660.884L662.783 30.8104L660.876 27.6993H661.785L663.282 30.1329L664.709 27.6993H665.618L663.701 30.8104ZM674.337 27.7439V33.9126H673.526V29.3128L671.475 33.9126H670.905L668.846 29.3039V33.9126H668.035V27.7439H668.908L671.19 32.8429L673.472 27.7439H674.337ZM677.861 28.359V30.436H680.125V31.1046H677.861V33.244H680.393V33.9126H677.05V27.6904H680.393V28.359H677.861ZM684.892 27.6993C685.569 27.6993 686.155 27.8271 686.648 28.0827C687.147 28.3323 687.527 28.6918 687.789 29.1613C688.056 29.6308 688.19 30.1835 688.19 30.8193C688.19 31.4552 688.056 32.0079 687.789 32.4774C687.527 32.9409 687.147 33.2975 686.648 33.5471C686.155 33.7908 685.569 33.9126 684.892 33.9126H682.957V27.6993H684.892ZM684.892 33.244C685.694 33.244 686.306 33.0331 686.728 32.6111C687.15 32.1832 687.361 31.586 687.361 30.8193C687.361 30.0468 687.147 29.4436 686.719 29.0097C686.297 28.5759 685.688 28.359 684.892 28.359H683.768V33.244H684.892ZM691.408 27.6993V33.9126H690.597V27.6993H691.408ZM697.801 32.5309H695.091L694.592 33.9126H693.736L695.982 27.735H696.918L699.156 33.9126H698.3L697.801 32.5309ZM697.569 31.8712L696.446 28.7334L695.323 31.8712H697.569Z" fill="#8F8F8F"/>
<defs>
<linearGradient id="paint0_linear_67_39" x1="554.053" y1="17.2527" x2="583.496" y2="17.2527" gradientUnits="userSpaceOnUse">
<stop stop-color="#7F7F7F"/>
<stop offset="1" stop-color="white"/>
</linearGradient>
<linearGradient id="paint1_linear_67_39" x1="571.067" y1="16.804" x2="600.51" y2="16.804" gradientUnits="userSpaceOnUse">
<stop stop-color="#959595"/>
<stop offset="1" stop-color="#E0E0E0"/>
</linearGradient>
<linearGradient id="paint2_linear_67_39" x1="572.788" y1="9.44417" x2="582.775" y2="9.44417" gradientUnits="userSpaceOnUse">
<stop stop-color="#D6D6D6"/>
<stop offset="1" stop-color="#F9F9F9"/>
</linearGradient>
<clipPath id="clip0_67_39">
<rect width="24.0533" height="24.0267" fill="white" transform="translate(0.000228882 4.98682)"/>
</clipPath>
<clipPath id="clip1_67_39">
<rect width="16.9645" height="16.9458" fill="white" transform="matrix(-1 0 0 1 449.258 0.000976562)"/>
</clipPath>
<clipPath id="clip2_67_39">
<rect width="10.0411" height="12.8067" fill="white" transform="translate(572.265 4.67627)"/>
</clipPath>
</defs>
</svg>
